G04*
G04 #@! TF.GenerationSoftware,Altium Limited,Altium Designer,19.0.10 (269)*
G04*
G04 Layer_Color=8388736*
%FSLAX25Y25*%
%MOIN*%
G70*
G01*
G75*
%ADD16C,0.07493*%
%ADD17O,0.12611X0.16548*%
%ADD18O,0.06700X0.08477*%
%ADD19O,0.08900X0.08477*%
%ADD20O,0.12611X0.06706*%
%ADD21O,0.05131X0.06312*%
%ADD22O,0.08800X0.08300*%
%ADD23O,0.08300X0.08800*%
%ADD24C,0.00800*%
%ADD25C,0.00400*%
%ADD26C,0.01100*%
%ADD27C,0.01200*%
D16*
X-9843Y-29528D02*
D03*
X0D02*
D03*
X9843D02*
D03*
D17*
X-23228Y0D02*
D03*
X23228D02*
D03*
D18*
X0Y27559D02*
D03*
X15748D02*
D03*
X-15748D02*
D03*
D19*
X7874D02*
D03*
X-7874D02*
D03*
D20*
X44094Y20000D02*
D03*
Y10000D02*
D03*
Y0D02*
D03*
Y-10000D02*
D03*
Y-20000D02*
D03*
X-44094D02*
D03*
Y-10000D02*
D03*
Y0D02*
D03*
Y10000D02*
D03*
Y20000D02*
D03*
D21*
X7500Y38189D02*
D03*
X-7500D02*
D03*
X-2500D02*
D03*
X2500D02*
D03*
D22*
X-10000Y-48800D02*
D03*
X10000D02*
D03*
X20000D02*
D03*
X-20000D02*
D03*
X0D02*
D03*
X-20000Y48800D02*
D03*
X-10000D02*
D03*
X0D02*
D03*
X10000D02*
D03*
X20000D02*
D03*
D23*
X-48800Y-20000D02*
D03*
Y-10000D02*
D03*
Y0D02*
D03*
Y10000D02*
D03*
Y20000D02*
D03*
X48800D02*
D03*
Y10000D02*
D03*
Y0D02*
D03*
Y-10000D02*
D03*
Y-20000D02*
D03*
D24*
X39370Y39370D02*
D03*
X-39370Y-39370D02*
D03*
D25*
X-36909Y34350D02*
D03*
X32443Y-16043D02*
D03*
X-34350Y34350D02*
D03*
X-2088Y2088D02*
D03*
Y-2088D02*
D03*
X2088D02*
D03*
Y2088D02*
D03*
X-6578Y-43841D02*
D03*
X16535Y-29921D02*
D03*
X-14930Y-44094D02*
D03*
X4331Y-34252D02*
D03*
X-32762Y12611D02*
D03*
X-14805Y44738D02*
D03*
X-31496Y-20000D02*
D03*
X14919Y-26779D02*
D03*
X27559Y-46505D02*
D03*
X32776Y-41437D02*
D03*
X42126Y-27756D02*
D03*
X-29528Y-37402D02*
D03*
X-37402Y-29528D02*
D03*
X-5512Y-24409D02*
D03*
X12598Y-24016D02*
D03*
X33465Y-1969D02*
D03*
Y3937D02*
D03*
Y9843D02*
D03*
Y15354D02*
D03*
Y21654D02*
D03*
X37402Y27559D02*
D03*
X31496Y31496D02*
D03*
X27559Y39370D02*
D03*
X-33465Y45276D02*
D03*
X-41339D02*
D03*
X-43307Y27559D02*
D03*
X-33465Y25591D02*
D03*
X-16295Y7409D02*
D03*
X-19106Y9317D02*
D03*
X-25591Y10630D02*
D03*
X-25748Y17181D02*
D03*
X-45276Y-29528D02*
D03*
X-27559Y-43307D02*
D03*
X-19750Y-24540D02*
D03*
X-29921Y-10000D02*
D03*
X-13077Y3150D02*
D03*
X0Y11811D02*
D03*
X2066Y-11392D02*
D03*
X0Y-22835D02*
D03*
X22047Y-18504D02*
D03*
X-12800Y-13386D02*
D03*
X-1206Y-10630D02*
D03*
X-22633Y37303D02*
D03*
X-14961Y37402D02*
D03*
X-15268Y-29134D02*
D03*
X-15317Y-24540D02*
D03*
X19540Y-31890D02*
D03*
X-4331Y11811D02*
D03*
X-4724Y15748D02*
D03*
X3937Y11417D02*
D03*
D26*
X-21260Y20866D02*
D03*
D27*
X0Y-17717D02*
D03*
M02*
