G04*
G04 #@! TF.GenerationSoftware,Altium Limited,Altium Designer,19.0.10 (269)*
G04*
G04 Layer_Physical_Order=4*
G04 Layer_Color=16711680*
%FSLAX25Y25*%
%MOIN*%
G70*
G01*
G75*
%ADD10C,0.00800*%
%ADD11C,0.01000*%
%ADD28C,0.01200*%
%ADD29C,0.03937*%
%ADD30C,0.06693*%
%ADD31O,0.11811X0.15748*%
%ADD32O,0.05900X0.07677*%
%ADD33O,0.08100X0.07677*%
%ADD34O,0.11811X0.05906*%
%ADD35O,0.04331X0.05512*%
%ADD36O,0.08000X0.07500*%
%ADD37O,0.07500X0.08000*%
%ADD38C,0.02400*%
%ADD39C,0.03100*%
%ADD40C,0.03200*%
G04:AMPARAMS|DCode=41|XSize=24.5mil|YSize=26mil|CornerRadius=6.13mil|HoleSize=0mil|Usage=FLASHONLY|Rotation=180.000|XOffset=0mil|YOffset=0mil|HoleType=Round|Shape=RoundedRectangle|*
%AMROUNDEDRECTD41*
21,1,0.02450,0.01375,0,0,180.0*
21,1,0.01225,0.02600,0,0,180.0*
1,1,0.01225,-0.00613,0.00688*
1,1,0.01225,0.00613,0.00688*
1,1,0.01225,0.00613,-0.00688*
1,1,0.01225,-0.00613,-0.00688*
%
%ADD41ROUNDEDRECTD41*%
%ADD42O,0.03937X0.01968*%
%ADD43R,0.04921X0.02402*%
G04:AMPARAMS|DCode=44|XSize=24.5mil|YSize=26mil|CornerRadius=6.13mil|HoleSize=0mil|Usage=FLASHONLY|Rotation=270.000|XOffset=0mil|YOffset=0mil|HoleType=Round|Shape=RoundedRectangle|*
%AMROUNDEDRECTD44*
21,1,0.02450,0.01375,0,0,270.0*
21,1,0.01225,0.02600,0,0,270.0*
1,1,0.01225,-0.00688,-0.00613*
1,1,0.01225,-0.00688,0.00613*
1,1,0.01225,0.00688,0.00613*
1,1,0.01225,0.00688,-0.00613*
%
%ADD44ROUNDEDRECTD44*%
G04:AMPARAMS|DCode=45|XSize=9.84mil|YSize=23.62mil|CornerRadius=0mil|HoleSize=0mil|Usage=FLASHONLY|Rotation=135.000|XOffset=0mil|YOffset=0mil|HoleType=Round|Shape=Round|*
%AMOVALD45*
21,1,0.01378,0.00984,0.00000,0.00000,225.0*
1,1,0.00984,0.00487,0.00487*
1,1,0.00984,-0.00487,-0.00487*
%
%ADD45OVALD45*%

G04:AMPARAMS|DCode=46|XSize=9.84mil|YSize=23.62mil|CornerRadius=0mil|HoleSize=0mil|Usage=FLASHONLY|Rotation=225.000|XOffset=0mil|YOffset=0mil|HoleType=Round|Shape=Round|*
%AMOVALD46*
21,1,0.01378,0.00984,0.00000,0.00000,315.0*
1,1,0.00984,-0.00487,0.00487*
1,1,0.00984,0.00487,-0.00487*
%
%ADD46OVALD46*%

%ADD47P,0.15033X4X270.0*%
G04:AMPARAMS|DCode=48|XSize=24.5mil|YSize=26mil|CornerRadius=6.13mil|HoleSize=0mil|Usage=FLASHONLY|Rotation=45.000|XOffset=0mil|YOffset=0mil|HoleType=Round|Shape=RoundedRectangle|*
%AMROUNDEDRECTD48*
21,1,0.02450,0.01375,0,0,45.0*
21,1,0.01225,0.02600,0,0,45.0*
1,1,0.01225,0.00919,-0.00053*
1,1,0.01225,0.00053,-0.00919*
1,1,0.01225,-0.00919,0.00053*
1,1,0.01225,-0.00053,0.00919*
%
%ADD48ROUNDEDRECTD48*%
G04:AMPARAMS|DCode=49|XSize=35mil|YSize=41mil|CornerRadius=8.75mil|HoleSize=0mil|Usage=FLASHONLY|Rotation=225.000|XOffset=0mil|YOffset=0mil|HoleType=Round|Shape=RoundedRectangle|*
%AMROUNDEDRECTD49*
21,1,0.03500,0.02350,0,0,225.0*
21,1,0.01750,0.04100,0,0,225.0*
1,1,0.01750,-0.01450,0.00212*
1,1,0.01750,-0.00212,0.01450*
1,1,0.01750,0.01450,-0.00212*
1,1,0.01750,0.00212,-0.01450*
%
%ADD49ROUNDEDRECTD49*%
%ADD50C,0.02000*%
%ADD51C,0.01500*%
G36*
X41094Y48035D02*
X42751Y47533D01*
X44279Y46716D01*
X45617Y45617D01*
X46716Y44279D01*
X47533Y42751D01*
X48035Y41094D01*
X48201Y39411D01*
X48193Y39370D01*
Y24961D01*
X47560Y24878D01*
X46404Y24399D01*
X45867Y23987D01*
X45594D01*
Y20000D01*
Y16013D01*
X45867D01*
X46404Y15601D01*
X47560Y15122D01*
X48106Y15050D01*
Y14546D01*
X47664Y14488D01*
X46606Y14050D01*
X45998Y13583D01*
X41142D01*
X40214Y13461D01*
X39350Y13103D01*
X38608Y12534D01*
X38038Y11792D01*
X37680Y10927D01*
X37558Y10000D01*
X37680Y9072D01*
X38038Y8208D01*
X38608Y7466D01*
X39350Y6897D01*
X40214Y6539D01*
X41142Y6417D01*
X45998D01*
X46606Y5950D01*
X47664Y5512D01*
X48193Y5442D01*
Y4558D01*
X47664Y4488D01*
X46606Y4050D01*
X45998Y3583D01*
X41142D01*
X40214Y3461D01*
X39350Y3103D01*
X38608Y2534D01*
X38038Y1792D01*
X37680Y927D01*
X37558Y0D01*
X37680Y-927D01*
X38038Y-1792D01*
X38067Y-1829D01*
X30112Y-9785D01*
X20416D01*
X16997Y-6366D01*
X16666Y-6145D01*
X16276Y-6067D01*
X10672D01*
X10595Y-5952D01*
X10862Y-5452D01*
X12012D01*
X12012Y-5452D01*
X12442Y-5367D01*
X12806Y-5124D01*
X14586Y-3343D01*
X14586Y-3343D01*
X14829Y-2980D01*
X14914Y-2550D01*
X14914Y-2550D01*
Y5215D01*
X18033Y8333D01*
X19420D01*
X19420Y8333D01*
X19849Y8419D01*
X20213Y8662D01*
X21453Y9902D01*
X22519D01*
X22520Y9902D01*
X22949Y9987D01*
X23313Y10231D01*
X25586Y12504D01*
X25611Y12487D01*
X26084Y12393D01*
X27459D01*
X27932Y12487D01*
X28333Y12755D01*
X28601Y13156D01*
X28695Y13629D01*
Y14854D01*
X28601Y15327D01*
X28333Y15728D01*
X28140Y15857D01*
Y16426D01*
X28333Y16555D01*
X28601Y16956D01*
X28695Y17429D01*
Y18654D01*
X28601Y19127D01*
X28333Y19528D01*
X27932Y19796D01*
X27893Y19804D01*
Y29677D01*
X27893Y29677D01*
X27808Y30107D01*
X27565Y30470D01*
X27565Y30470D01*
X14997Y43038D01*
X14633Y43281D01*
X14204Y43366D01*
X14204Y43366D01*
X-3303D01*
X-3382Y43477D01*
X-3492Y43866D01*
X-2383Y44975D01*
X-1386Y44562D01*
X-250Y44412D01*
X250D01*
X1386Y44562D01*
X2444Y45000D01*
X3353Y45698D01*
X4050Y46606D01*
X4488Y47664D01*
X4558Y48193D01*
X5442D01*
X5512Y47664D01*
X5950Y46606D01*
X6647Y45698D01*
X7556Y45000D01*
X8614Y44562D01*
X9750Y44412D01*
X10250D01*
X11386Y44562D01*
X12444Y45000D01*
X13352Y45698D01*
X14050Y46606D01*
X14488Y47664D01*
X14546Y48106D01*
X15050D01*
X15122Y47560D01*
X15601Y46404D01*
X16362Y45412D01*
X17355Y44651D01*
X18510Y44172D01*
X19750Y44009D01*
X20250D01*
X21490Y44172D01*
X22646Y44651D01*
X23638Y45412D01*
X24399Y46404D01*
X24878Y47560D01*
X24961Y48193D01*
X39370D01*
X39411Y48201D01*
X41094Y48035D01*
D02*
G37*
G36*
X-39370Y48193D02*
X-24558D01*
X-24488Y47664D01*
X-24050Y46606D01*
X-23352Y45698D01*
X-22444Y45000D01*
X-21386Y44562D01*
X-20250Y44412D01*
X-19750D01*
X-18614Y44562D01*
X-17556Y45000D01*
X-16647Y45698D01*
X-15950Y46606D01*
X-15512Y47664D01*
X-15442Y48193D01*
X-14558D01*
X-14488Y47664D01*
X-14050Y46606D01*
X-13352Y45698D01*
X-12552Y45083D01*
Y44364D01*
X-16493Y40422D01*
X-17094D01*
X-17484Y40345D01*
X-17814Y40124D01*
X-20346Y37592D01*
X-20888Y37757D01*
X-20938Y38006D01*
X-21336Y38601D01*
X-21931Y38999D01*
X-22633Y39138D01*
X-23336Y38999D01*
X-23931Y38601D01*
X-23933Y38598D01*
X-23976Y38570D01*
X-24377Y38838D01*
X-24850Y38932D01*
X-26075D01*
X-26548Y38838D01*
X-26949Y38570D01*
X-27078Y38376D01*
X-27646D01*
X-27775Y38570D01*
X-28177Y38838D01*
X-28650Y38932D01*
X-29875D01*
X-30348Y38838D01*
X-30671Y38622D01*
X-33405D01*
X-33807Y39007D01*
X-33927Y39054D01*
X-34020Y39144D01*
X-34914Y39493D01*
X-35043Y39490D01*
X-35163Y39537D01*
X-35631Y39528D01*
X-36096Y39537D01*
X-36217Y39490D01*
X-36346Y39493D01*
X-37240Y39144D01*
X-37333Y39054D01*
X-37453Y39007D01*
X-38145Y38343D01*
X-38197Y38224D01*
X-38290Y38135D01*
X-38675Y37256D01*
X-38678Y37127D01*
X-38730Y37009D01*
X-38740Y36529D01*
X-38739Y36519D01*
X-38740Y36516D01*
X-38691Y36151D01*
X-38691Y36151D01*
Y34623D01*
X-38745Y34350D01*
X-38691Y34078D01*
Y32550D01*
X-38691D01*
X-38740Y32185D01*
X-38739Y32182D01*
X-38740Y32172D01*
X-38738Y32070D01*
X-38730Y31692D01*
X-38678Y31574D01*
X-38675Y31445D01*
X-38290Y30566D01*
X-38197Y30476D01*
X-38145Y30358D01*
X-37453Y29694D01*
X-37333Y29647D01*
X-37240Y29557D01*
X-36346Y29208D01*
X-36217Y29211D01*
X-36096Y29164D01*
X-35630Y29173D01*
X-35164Y29164D01*
X-35043Y29211D01*
X-34914Y29208D01*
X-34020Y29557D01*
X-33927Y29647D01*
X-33807Y29693D01*
X-33405Y30079D01*
X-30036D01*
X-30035Y30079D01*
X-29992Y30088D01*
X-29875Y30064D01*
X-28650D01*
X-28177Y30158D01*
X-27775Y30426D01*
X-27646Y30620D01*
X-27078D01*
X-26949Y30426D01*
X-26635Y30217D01*
Y25338D01*
X-36154Y15819D01*
X-36375Y15488D01*
X-36453Y15098D01*
Y-7058D01*
X-37569Y-8174D01*
X-38156Y-8055D01*
X-38608Y-7466D01*
X-39350Y-6897D01*
X-40214Y-6539D01*
X-41142Y-6417D01*
X-45998D01*
X-46606Y-5950D01*
X-47664Y-5512D01*
X-48193Y-5442D01*
Y-4558D01*
X-47664Y-4488D01*
X-46606Y-4050D01*
X-45998Y-3583D01*
X-41142D01*
X-40214Y-3461D01*
X-39350Y-3103D01*
X-38608Y-2534D01*
X-38038Y-1792D01*
X-37680Y-927D01*
X-37558Y0D01*
X-37680Y927D01*
X-38038Y1792D01*
X-38608Y2534D01*
X-39350Y3103D01*
X-40214Y3461D01*
X-41142Y3583D01*
X-45998D01*
X-46606Y4050D01*
X-47664Y4488D01*
X-48193Y4558D01*
Y5442D01*
X-47664Y5512D01*
X-46606Y5950D01*
X-45998Y6417D01*
X-41142D01*
X-40214Y6539D01*
X-39350Y6897D01*
X-38608Y7466D01*
X-38038Y8208D01*
X-37680Y9072D01*
X-37558Y10000D01*
X-37680Y10927D01*
X-38038Y11792D01*
X-38608Y12534D01*
X-39350Y13103D01*
X-40214Y13461D01*
X-41142Y13583D01*
X-45998D01*
X-46606Y14050D01*
X-47664Y14488D01*
X-48106Y14546D01*
Y15050D01*
X-47560Y15122D01*
X-46404Y15601D01*
X-45867Y16013D01*
X-45594D01*
Y20000D01*
Y23987D01*
X-45867D01*
X-46404Y24399D01*
X-47560Y24878D01*
X-48193Y24961D01*
Y39370D01*
X-48201Y39411D01*
X-48035Y41094D01*
X-47533Y42751D01*
X-46716Y44279D01*
X-45617Y45617D01*
X-44279Y46716D01*
X-42751Y47533D01*
X-41094Y48035D01*
X-39411Y48201D01*
X-39370Y48193D01*
D02*
G37*
G36*
X-35630Y38878D02*
Y38878D01*
X-35150Y38888D01*
X-34256Y38539D01*
X-33564Y37874D01*
X-33179Y36995D01*
X-33169Y36516D01*
X-33169Y36516D01*
X-38091Y36516D01*
X-38081Y36995D01*
X-37696Y37874D01*
X-37003Y38539D01*
X-36110Y38888D01*
X-35630Y38878D01*
D02*
G37*
G36*
X-9508Y40705D02*
X-9916Y40174D01*
X-10194Y39501D01*
X-10289Y38780D01*
Y37598D01*
X-10194Y36876D01*
X-9916Y36204D01*
X-9472Y35626D01*
X-8895Y35183D01*
X-8661Y35086D01*
X-8760Y34586D01*
X-9843D01*
X-10272Y34501D01*
X-10636Y34258D01*
X-10636Y34258D01*
X-13611Y31282D01*
X-13958Y31549D01*
X-14821Y31906D01*
X-15748Y32028D01*
X-16675Y31906D01*
X-17538Y31549D01*
X-18280Y30979D01*
X-18849Y30238D01*
X-19207Y29374D01*
X-19329Y28448D01*
Y26671D01*
X-19207Y25744D01*
X-18849Y24880D01*
X-18280Y24139D01*
X-17538Y23570D01*
X-16675Y23212D01*
X-15748Y23090D01*
X-14821Y23212D01*
X-14391Y23390D01*
X-10090Y19089D01*
X-10090Y19089D01*
X-9726Y18846D01*
X-9297Y18760D01*
X-9297Y18760D01*
X4063D01*
X4375Y18448D01*
Y17429D01*
X4470Y16956D01*
X4738Y16555D01*
X4931Y16426D01*
Y15857D01*
X4738Y15728D01*
X4470Y15327D01*
X4375Y14854D01*
Y13675D01*
X4352Y13609D01*
X3941Y13252D01*
X3937Y13253D01*
X3235Y13113D01*
X2639Y12715D01*
X2241Y12120D01*
X2102Y11417D01*
X2241Y10715D01*
X2541Y10266D01*
X2519Y9738D01*
X2484Y9626D01*
X1509Y8652D01*
X1268Y8291D01*
X1183Y7864D01*
X1268Y7438D01*
X1509Y7077D01*
X1871Y6836D01*
X2127Y6785D01*
X2411Y6587D01*
X2609Y6303D01*
X2660Y6046D01*
X2901Y5685D01*
X3263Y5444D01*
X3519Y5393D01*
X3803Y5195D01*
X4001Y4911D01*
X4052Y4654D01*
X4293Y4293D01*
X4654Y4052D01*
X4911Y4001D01*
X5195Y3803D01*
X5393Y3519D01*
X5444Y3263D01*
X5685Y2901D01*
X6046Y2660D01*
X6303Y2609D01*
X6587Y2411D01*
X6785Y2127D01*
X6836Y1871D01*
X7077Y1509D01*
X7438Y1268D01*
X7864Y1183D01*
X8291Y1268D01*
X8652Y1509D01*
X9180Y2038D01*
X9214Y2060D01*
X12209Y5055D01*
X12671Y4864D01*
Y-2086D01*
X11548Y-3209D01*
X10363D01*
X9214Y-2060D01*
X9180Y-2038D01*
X8652Y-1509D01*
X8291Y-1268D01*
X7864Y-1183D01*
X7438Y-1268D01*
X7077Y-1509D01*
X6836Y-1871D01*
X6785Y-2127D01*
X6587Y-2411D01*
X6303Y-2609D01*
X6046Y-2660D01*
X5685Y-2901D01*
X5444Y-3263D01*
X5393Y-3519D01*
X5195Y-3803D01*
X4911Y-4001D01*
X4654Y-4052D01*
X4293Y-4293D01*
X4052Y-4654D01*
X4001Y-4911D01*
X3803Y-5195D01*
X3519Y-5393D01*
X3263Y-5444D01*
X2901Y-5685D01*
X2660Y-6046D01*
X2609Y-6303D01*
X2411Y-6587D01*
X2127Y-6785D01*
X1871Y-6836D01*
X1509Y-7077D01*
X1268Y-7438D01*
X1183Y-7864D01*
X1268Y-8291D01*
X1509Y-8652D01*
X2484Y-9626D01*
X2845Y-9868D01*
X2861Y-9871D01*
X4998Y-12008D01*
X5329Y-12229D01*
X5719Y-12306D01*
X14114D01*
X17790Y-15982D01*
Y-27569D01*
X17867Y-27959D01*
X17971Y-28114D01*
X17610Y-28475D01*
X17238Y-28226D01*
X16535Y-28086D01*
X15833Y-28226D01*
X15238Y-28624D01*
X14840Y-29219D01*
X14700Y-29921D01*
X14840Y-30624D01*
X15238Y-31219D01*
X15262Y-31467D01*
X13131Y-33597D01*
X11636D01*
X11537Y-33097D01*
X11833Y-32975D01*
X12657Y-32342D01*
X13290Y-31518D01*
X13687Y-30558D01*
X13823Y-29528D01*
X13687Y-28497D01*
X13290Y-27537D01*
X12657Y-26713D01*
X11833Y-26080D01*
X10873Y-25683D01*
X10862Y-25681D01*
Y-22384D01*
X11003Y-22355D01*
X11404Y-22087D01*
X11672Y-21686D01*
X11766Y-21213D01*
Y-19988D01*
X11672Y-19515D01*
X11404Y-19114D01*
X11211Y-18985D01*
Y-18417D01*
X11404Y-18288D01*
X11672Y-17886D01*
X11685Y-17820D01*
X12712D01*
X13075Y-18257D01*
X13049Y-18665D01*
X13011Y-18761D01*
X12914Y-18826D01*
X12557Y-19359D01*
X12432Y-19988D01*
Y-20101D01*
X14764D01*
X17095D01*
Y-19988D01*
X16970Y-19359D01*
X16614Y-18826D01*
X16517Y-18761D01*
X16478Y-18665D01*
X16444Y-18111D01*
X16593Y-17886D01*
X16688Y-17413D01*
Y-16188D01*
X16593Y-15715D01*
X16325Y-15314D01*
X15924Y-15046D01*
X15451Y-14952D01*
X14076D01*
X13603Y-15046D01*
X13202Y-15314D01*
X12934Y-15715D01*
X12921Y-15781D01*
X11685D01*
X11672Y-15715D01*
X11404Y-15314D01*
X11003Y-15046D01*
X10530Y-14952D01*
X9436D01*
X8185Y-13702D01*
X7854Y-13481D01*
X7464Y-13403D01*
X-2379D01*
X-4701Y-11081D01*
Y-9565D01*
X-4201Y-9413D01*
X-4058Y-9626D01*
X-3697Y-9868D01*
X-3411Y-9924D01*
X-3088Y-10257D01*
X-2997Y-10408D01*
X-3042Y-10630D01*
X-2902Y-11332D01*
X-2504Y-11928D01*
X-1909Y-12325D01*
X-1206Y-12465D01*
X-504Y-12325D01*
X91Y-11928D01*
X489Y-11332D01*
X629Y-10630D01*
X489Y-9928D01*
X91Y-9332D01*
X-504Y-8934D01*
X-996Y-8836D01*
X-1378Y-8455D01*
X-1268Y-8291D01*
X-1183Y-7864D01*
X-1268Y-7438D01*
X-1509Y-7077D01*
X-1871Y-6836D01*
X-2127Y-6785D01*
X-2411Y-6587D01*
X-2609Y-6303D01*
X-2660Y-6046D01*
X-2901Y-5685D01*
X-3263Y-5444D01*
X-3519Y-5393D01*
X-3803Y-5195D01*
X-4001Y-4911D01*
X-4052Y-4654D01*
X-4293Y-4293D01*
X-4654Y-4052D01*
X-4911Y-4001D01*
X-5195Y-3803D01*
X-5393Y-3519D01*
X-5444Y-3263D01*
X-5685Y-2901D01*
X-6046Y-2660D01*
X-6303Y-2609D01*
X-6587Y-2411D01*
X-6785Y-2127D01*
X-6836Y-1871D01*
X-7077Y-1509D01*
X-7438Y-1268D01*
X-7864Y-1183D01*
X-8291Y-1268D01*
X-8652Y-1509D01*
X-9626Y-2484D01*
X-9868Y-2845D01*
X-9871Y-2861D01*
X-10723Y-3714D01*
X-11185Y-3522D01*
Y-1352D01*
X-8455Y1378D01*
X-8291Y1268D01*
X-7864Y1183D01*
X-7438Y1268D01*
X-7077Y1509D01*
X-6836Y1871D01*
X-6823Y1933D01*
X-6472Y2167D01*
X-5890Y2283D01*
X-5821Y2330D01*
X-7313Y3822D01*
X-8806Y5315D01*
X-8852Y5245D01*
X-8968Y4663D01*
X-9203Y4312D01*
X-9265Y4300D01*
X-9626Y4059D01*
X-9868Y3697D01*
X-9952Y3271D01*
X-9868Y2848D01*
X-12926Y-209D01*
X-13147Y-540D01*
X-13224Y-930D01*
Y-3952D01*
X-19139Y-9867D01*
X-23679D01*
X-24070Y-9944D01*
X-24400Y-10165D01*
X-27937Y-13702D01*
X-28158Y-14032D01*
X-28235Y-14423D01*
Y-26373D01*
X-28158Y-26763D01*
X-27937Y-27093D01*
X-22279Y-32751D01*
Y-35331D01*
X-22870Y-35561D01*
X-22963Y-35651D01*
X-23083Y-35697D01*
X-23775Y-36362D01*
X-23827Y-36480D01*
X-23920Y-36570D01*
X-24305Y-37449D01*
X-24308Y-37578D01*
X-24360Y-37696D01*
X-24370Y-38176D01*
X-24367Y-38182D01*
X-24370Y-38189D01*
X-24277Y-38413D01*
X-24190Y-38636D01*
X-24189Y-38639D01*
X-24182Y-38642D01*
X-24180Y-38648D01*
X-24111Y-38677D01*
X-23938Y-39040D01*
X-23924Y-39296D01*
X-24113Y-39580D01*
X-24168Y-39854D01*
X-23708D01*
X-23710Y-39850D01*
X-23720Y-39370D01*
X-18799Y-39370D01*
X-18809Y-39850D01*
X-18811Y-39854D01*
X-18352D01*
X-18406Y-39580D01*
X-18596Y-39296D01*
X-18578Y-38986D01*
X-18525Y-38842D01*
X-18409Y-38677D01*
X-18343Y-38649D01*
X-18340Y-38648D01*
X-18337Y-38642D01*
X-18331Y-38639D01*
X-18243Y-38415D01*
X-18150Y-38189D01*
X-18153Y-38182D01*
X-18150Y-38176D01*
X-18160Y-37696D01*
X-18212Y-37578D01*
X-18214Y-37449D01*
X-18599Y-36570D01*
X-18692Y-36480D01*
X-18744Y-36362D01*
X-19436Y-35697D01*
X-19557Y-35651D01*
X-19650Y-35561D01*
X-20240Y-35331D01*
Y-33180D01*
X-19778Y-32989D01*
X-16771Y-35996D01*
X-16834Y-36570D01*
X-17219Y-37449D01*
X-17221Y-37578D01*
X-17273Y-37696D01*
X-17283Y-38176D01*
X-17280Y-38182D01*
X-17283Y-38189D01*
X-17190Y-38413D01*
X-17103Y-38636D01*
X-17102Y-38639D01*
X-17096Y-38642D01*
X-17093Y-38648D01*
X-17024Y-38677D01*
X-16852Y-39040D01*
X-16837Y-39296D01*
X-17027Y-39580D01*
X-17081Y-39854D01*
X-16622D01*
X-16624Y-39850D01*
X-16634Y-39370D01*
X-11712Y-39370D01*
X-11722Y-39850D01*
X-11724Y-39854D01*
X-11265D01*
X-11320Y-39580D01*
X-11509Y-39296D01*
X-11492Y-38986D01*
X-11439Y-38842D01*
X-11322Y-38677D01*
X-11256Y-38649D01*
X-11253Y-38648D01*
X-11251Y-38642D01*
X-11244Y-38639D01*
X-11157Y-38415D01*
X-11063Y-38189D01*
X-11066Y-38182D01*
X-11063Y-38176D01*
X-11073Y-37696D01*
X-11125Y-37578D01*
X-11128Y-37449D01*
X-11513Y-36570D01*
X-11606Y-36480D01*
X-11658Y-36362D01*
X-11882Y-36147D01*
X-11681Y-35647D01*
X-9975D01*
X-9599Y-36027D01*
X-9601Y-36305D01*
X-9698Y-36522D01*
X-9747Y-36570D01*
X-10132Y-37449D01*
X-10135Y-37578D01*
X-10187Y-37696D01*
X-10197Y-38176D01*
X-10194Y-38182D01*
X-10197Y-38189D01*
X-10104Y-38413D01*
X-10017Y-38636D01*
X-10016Y-38639D01*
X-10009Y-38642D01*
X-10006Y-38648D01*
X-9938Y-38677D01*
X-9765Y-39040D01*
X-9750Y-39296D01*
X-9940Y-39580D01*
X-9994Y-39854D01*
X-9535D01*
X-9537Y-39850D01*
X-9547Y-39370D01*
X-4626Y-39370D01*
X-4636Y-39850D01*
X-4638Y-39854D01*
X-4179D01*
X-4233Y-39580D01*
X-4423Y-39296D01*
X-4405Y-38986D01*
X-4352Y-38842D01*
X-4235Y-38677D01*
X-4170Y-38649D01*
X-4167Y-38648D01*
X-4164Y-38642D01*
X-4158Y-38639D01*
X-4070Y-38415D01*
X-3977Y-38189D01*
X-3979Y-38182D01*
X-3977Y-38176D01*
X-3986Y-37696D01*
X-4038Y-37578D01*
X-4041Y-37449D01*
X-4426Y-36570D01*
X-4519Y-36480D01*
X-4571Y-36362D01*
X-5263Y-35697D01*
X-5384Y-35651D01*
X-5477Y-35561D01*
X-6371Y-35212D01*
X-6500Y-35215D01*
X-6620Y-35168D01*
X-7087Y-35177D01*
X-7484Y-35169D01*
X-8746Y-33907D01*
X-8794Y-33874D01*
X-8802Y-33654D01*
X-8709Y-33330D01*
X-7852Y-32975D01*
X-7028Y-32342D01*
X-6395Y-31518D01*
X-5998Y-30558D01*
X-5862Y-29528D01*
X-5998Y-28497D01*
X-6395Y-27537D01*
X-7028Y-26713D01*
X-7852Y-26080D01*
X-8812Y-25683D01*
X-8823Y-25681D01*
Y-22384D01*
X-8682Y-22355D01*
X-8281Y-22087D01*
X-8013Y-21686D01*
X-8000Y-21620D01*
X-6764D01*
X-6751Y-21686D01*
X-6483Y-22087D01*
X-6082Y-22355D01*
X-5609Y-22449D01*
X-4234D01*
X-3761Y-22355D01*
X-3360Y-22087D01*
X-3092Y-21686D01*
X-2998Y-21213D01*
Y-19988D01*
X-3092Y-19515D01*
X-3360Y-19114D01*
X-3553Y-18985D01*
Y-18417D01*
X-3360Y-18288D01*
X-3184Y-18024D01*
X-2182D01*
X-2072Y-18575D01*
X-1586Y-19303D01*
X-858Y-19789D01*
X0Y-19960D01*
X858Y-19789D01*
X1586Y-19303D01*
X2072Y-18575D01*
X2182Y-18024D01*
X3184D01*
X3360Y-18288D01*
X3553Y-18417D01*
Y-18985D01*
X3360Y-19114D01*
X3092Y-19515D01*
X2998Y-19988D01*
Y-21213D01*
X3092Y-21686D01*
X3360Y-22087D01*
X3761Y-22355D01*
X4234Y-22449D01*
X5609D01*
X6082Y-22355D01*
X6483Y-22087D01*
X6751Y-21686D01*
X6764Y-21620D01*
X8000D01*
X8013Y-21686D01*
X8281Y-22087D01*
X8682Y-22355D01*
X8823Y-22384D01*
Y-25681D01*
X8812Y-25683D01*
X7852Y-26080D01*
X7028Y-26713D01*
X6395Y-27537D01*
X5998Y-28497D01*
X5862Y-29528D01*
X5998Y-30558D01*
X6395Y-31518D01*
X7028Y-32342D01*
X7852Y-32975D01*
X8812Y-33372D01*
X9843Y-33508D01*
X10544Y-33416D01*
X10725Y-33896D01*
X8917Y-35704D01*
X8910Y-35697D01*
X8789Y-35651D01*
X8696Y-35561D01*
X7803Y-35212D01*
X7673Y-35215D01*
X7553Y-35168D01*
X7086Y-35177D01*
X6620Y-35168D01*
X6500Y-35215D01*
X6446Y-35214D01*
X6356Y-35158D01*
X6239Y-35038D01*
X6057Y-34798D01*
X6166Y-34252D01*
X6026Y-33550D01*
X5628Y-32954D01*
X5033Y-32556D01*
X4331Y-32417D01*
X3813Y-32520D01*
X3531Y-32066D01*
X3797Y-31719D01*
X4083Y-31028D01*
X1500D01*
Y-33611D01*
X2192Y-33324D01*
X2212Y-33309D01*
X2437Y-33437D01*
X2620Y-33626D01*
X2496Y-34251D01*
X1305Y-35442D01*
X716Y-35212D01*
X587Y-35215D01*
X466Y-35168D01*
X-0Y-35177D01*
X-466Y-35168D01*
X-587Y-35215D01*
X-716Y-35212D01*
X-1610Y-35561D01*
X-1703Y-35651D01*
X-1823Y-35697D01*
X-2515Y-36362D01*
X-2567Y-36480D01*
X-2660Y-36570D01*
X-3046Y-37449D01*
X-3048Y-37578D01*
X-3100Y-37696D01*
X-3110Y-38176D01*
X-3107Y-38182D01*
X-3110Y-38189D01*
X-3017Y-38413D01*
X-2930Y-38636D01*
X-2929Y-38639D01*
X-2922Y-38642D01*
X-2920Y-38648D01*
X-2851Y-38677D01*
X-2679Y-39040D01*
X-2664Y-39296D01*
X-2853Y-39580D01*
X-2908Y-39854D01*
X-2448D01*
X-2451Y-39850D01*
X-2460Y-39370D01*
X2461Y-39370D01*
X2451Y-39850D01*
X2449Y-39854D01*
X2908D01*
X2853Y-39580D01*
X2664Y-39296D01*
X2682Y-38986D01*
X2735Y-38842D01*
X2851Y-38677D01*
X2917Y-38649D01*
X2920Y-38648D01*
X2922Y-38642D01*
X2929Y-38639D01*
X3017Y-38415D01*
X3110Y-38189D01*
X3107Y-38182D01*
X3110Y-38176D01*
X3100Y-37696D01*
X3048Y-37578D01*
X3046Y-37449D01*
X2782Y-36848D01*
X3674Y-35957D01*
X4199Y-36061D01*
X4232Y-36088D01*
X4353Y-36253D01*
X4373Y-36303D01*
X4426Y-36570D01*
X4041Y-37449D01*
X4038Y-37578D01*
X3986Y-37696D01*
X3977Y-38176D01*
X3979Y-38182D01*
X3977Y-38189D01*
X4069Y-38413D01*
X4157Y-38636D01*
X4158Y-38639D01*
X4164Y-38642D01*
X4167Y-38648D01*
X4236Y-38677D01*
X4408Y-39040D01*
X4423Y-39296D01*
X4233Y-39580D01*
X4179Y-39854D01*
X4638D01*
X4636Y-39850D01*
X4626Y-39370D01*
X9547Y-39370D01*
X9538Y-39850D01*
X9536Y-39854D01*
X9995D01*
X9940Y-39580D01*
X9751Y-39296D01*
X9768Y-38986D01*
X9821Y-38842D01*
X9938Y-38677D01*
X10004Y-38649D01*
X10006Y-38648D01*
X10009Y-38642D01*
X10016Y-38639D01*
X10103Y-38415D01*
X10197Y-38189D01*
X10194Y-38182D01*
X10197Y-38176D01*
X10187Y-37696D01*
X10135Y-37578D01*
X10132Y-37449D01*
X10109Y-37396D01*
X10992Y-36513D01*
X11412Y-36800D01*
X11128Y-37449D01*
X11125Y-37578D01*
X11073Y-37696D01*
X11063Y-38176D01*
X11066Y-38182D01*
X11063Y-38189D01*
X11156Y-38413D01*
X11243Y-38636D01*
X11244Y-38639D01*
X11251Y-38642D01*
X11253Y-38648D01*
X11322Y-38677D01*
X11495Y-39040D01*
X11509Y-39296D01*
X11320Y-39580D01*
X11265Y-39854D01*
X11725D01*
X11723Y-39850D01*
X11713Y-39370D01*
X16634Y-39370D01*
X16624Y-39850D01*
X16622Y-39854D01*
X17081D01*
X17027Y-39580D01*
X16837Y-39296D01*
X16855Y-38986D01*
X16908Y-38842D01*
X17024Y-38677D01*
X17090Y-38649D01*
X17093Y-38648D01*
X17096Y-38642D01*
X17102Y-38639D01*
X17190Y-38415D01*
X17283Y-38189D01*
X17280Y-38182D01*
X17283Y-38176D01*
X17273Y-37696D01*
X17221Y-37578D01*
X17219Y-37449D01*
X16834Y-36570D01*
X16846Y-36026D01*
X19212Y-33660D01*
X19540Y-33725D01*
X19854Y-33663D01*
X20240Y-33980D01*
Y-35331D01*
X19650Y-35561D01*
X19557Y-35651D01*
X19437Y-35697D01*
X18744Y-36362D01*
X18693Y-36480D01*
X18599Y-36570D01*
X18214Y-37449D01*
X18212Y-37578D01*
X18160Y-37696D01*
X18150Y-38176D01*
X18153Y-38182D01*
X18150Y-38189D01*
X18243Y-38413D01*
X18330Y-38636D01*
X18331Y-38639D01*
X18337Y-38642D01*
X18340Y-38648D01*
X18409Y-38677D01*
X18581Y-39040D01*
X18596Y-39296D01*
X18407Y-39580D01*
X18352Y-39854D01*
X18811D01*
X18809Y-39850D01*
X18800Y-39370D01*
X23721Y-39370D01*
X23711Y-39850D01*
X23709Y-39854D01*
X24168D01*
X24113Y-39580D01*
X23924Y-39296D01*
X23941Y-38986D01*
X23994Y-38842D01*
X24111Y-38677D01*
X24177Y-38649D01*
X24180Y-38648D01*
X24182Y-38642D01*
X24189Y-38639D01*
X24276Y-38415D01*
X24370Y-38189D01*
X24367Y-38182D01*
X24370Y-38176D01*
X24360Y-37696D01*
X24308Y-37578D01*
X24306Y-37449D01*
X23920Y-36570D01*
X23827Y-36480D01*
X23775Y-36362D01*
X23083Y-35697D01*
X22963Y-35651D01*
X22870Y-35561D01*
X22279Y-35331D01*
Y-33704D01*
X22461Y-33522D01*
X22682Y-33191D01*
X22760Y-32801D01*
Y-30500D01*
X22682Y-30110D01*
X22461Y-29779D01*
X19829Y-27147D01*
Y-15560D01*
X19751Y-15169D01*
X19721Y-15124D01*
X19988Y-14624D01*
X29718D01*
X30696Y-15602D01*
X30608Y-16043D01*
X30748Y-16746D01*
X31146Y-17341D01*
X31741Y-17739D01*
X32443Y-17879D01*
X32772Y-17813D01*
X35679Y-20721D01*
X36010Y-20942D01*
X36400Y-21020D01*
X37719D01*
X38038Y-21792D01*
X38608Y-22534D01*
X39350Y-23103D01*
X40214Y-23461D01*
X41142Y-23583D01*
X45998D01*
X46606Y-24050D01*
X47664Y-24488D01*
X48193Y-24558D01*
Y-39370D01*
X48201Y-39411D01*
X48035Y-41094D01*
X47533Y-42751D01*
X46716Y-44279D01*
X45617Y-45617D01*
X44279Y-46716D01*
X42751Y-47533D01*
X41094Y-48035D01*
X39411Y-48201D01*
X39370Y-48193D01*
X24961D01*
X24878Y-47560D01*
X24399Y-46404D01*
X23638Y-45412D01*
X22646Y-44651D01*
X21490Y-44172D01*
X20250Y-44009D01*
X19750D01*
X18510Y-44172D01*
X17355Y-44651D01*
X16362Y-45412D01*
X15601Y-46404D01*
X15122Y-47560D01*
X15050Y-48106D01*
X14546D01*
X14488Y-47664D01*
X14050Y-46606D01*
X13352Y-45698D01*
X12444Y-45000D01*
X11386Y-44562D01*
X10250Y-44412D01*
X9750D01*
X8614Y-44562D01*
X7556Y-45000D01*
X6647Y-45698D01*
X5950Y-46606D01*
X5512Y-47664D01*
X5442Y-48193D01*
X4558D01*
X4488Y-47664D01*
X4050Y-46606D01*
X3353Y-45698D01*
X2444Y-45000D01*
X1386Y-44562D01*
X250Y-44412D01*
X-250D01*
X-1386Y-44562D01*
X-2444Y-45000D01*
X-3311Y-45666D01*
X-4808Y-44169D01*
X-4743Y-43841D01*
X-4882Y-43138D01*
X-5186Y-42684D01*
X-5195Y-42655D01*
X-5138Y-42182D01*
X-5093Y-42066D01*
X-4672Y-41785D01*
X-4233Y-41129D01*
X-4179Y-40854D01*
X-5152D01*
X-5713Y-41393D01*
X-6607Y-41742D01*
X-7086Y-41732D01*
X-7566Y-41742D01*
X-8460Y-41393D01*
X-9021Y-40854D01*
X-9994D01*
X-9940Y-41129D01*
X-9501Y-41785D01*
X-8845Y-42223D01*
X-8332Y-42325D01*
X-8091Y-42829D01*
X-8093Y-42868D01*
X-8273Y-43138D01*
X-8413Y-43841D01*
X-8356Y-44128D01*
X-8431Y-44254D01*
X-8784Y-44540D01*
X-9750Y-44412D01*
X-10250D01*
X-11386Y-44562D01*
X-12444Y-45000D01*
X-13352Y-45698D01*
X-14050Y-46606D01*
X-14488Y-47664D01*
X-14558Y-48193D01*
X-15442D01*
X-15512Y-47664D01*
X-15950Y-46606D01*
X-16647Y-45698D01*
X-17556Y-45000D01*
X-18614Y-44562D01*
X-19750Y-44412D01*
X-20250D01*
X-21386Y-44562D01*
X-22444Y-45000D01*
X-23352Y-45698D01*
X-24050Y-46606D01*
X-24488Y-47664D01*
X-24558Y-48193D01*
X-39370D01*
X-39411Y-48201D01*
X-41094Y-48035D01*
X-42751Y-47533D01*
X-44279Y-46716D01*
X-45617Y-45617D01*
X-46716Y-44279D01*
X-47533Y-42751D01*
X-48035Y-41094D01*
X-48201Y-39411D01*
X-48193Y-39370D01*
Y-24558D01*
X-47664Y-24488D01*
X-46606Y-24050D01*
X-45998Y-23583D01*
X-41142D01*
X-40214Y-23461D01*
X-39350Y-23103D01*
X-38608Y-22534D01*
X-38038Y-21792D01*
X-37719Y-21020D01*
X-32980D01*
X-32794Y-21298D01*
X-32198Y-21696D01*
X-31496Y-21835D01*
X-30794Y-21696D01*
X-30198Y-21298D01*
X-29801Y-20702D01*
X-29661Y-20000D01*
X-29801Y-19298D01*
X-30198Y-18702D01*
X-30794Y-18304D01*
X-31496Y-18165D01*
X-32198Y-18304D01*
X-32794Y-18702D01*
X-32980Y-18980D01*
X-37719D01*
X-38038Y-18208D01*
X-38608Y-17466D01*
X-39350Y-16897D01*
X-40214Y-16539D01*
X-41142Y-16417D01*
X-45998D01*
X-46606Y-15950D01*
X-47664Y-15512D01*
X-48193Y-15442D01*
Y-14558D01*
X-47664Y-14488D01*
X-46606Y-14050D01*
X-45998Y-13583D01*
X-41142D01*
X-40214Y-13461D01*
X-39350Y-13103D01*
X-38608Y-12534D01*
X-38038Y-11792D01*
X-37698Y-10969D01*
X-37563Y-10942D01*
X-37232Y-10721D01*
X-34712Y-8201D01*
X-34491Y-7870D01*
X-34413Y-7480D01*
Y11012D01*
X-33913Y11216D01*
X-33464Y10915D01*
X-32762Y10776D01*
X-32059Y10915D01*
X-31464Y11313D01*
X-31066Y11909D01*
X-30926Y12611D01*
X-31066Y13313D01*
X-31464Y13909D01*
X-31742Y14094D01*
Y15085D01*
X-22516Y24310D01*
X-22295Y24641D01*
X-22218Y25031D01*
Y30857D01*
X-16822Y36252D01*
X-16325Y36203D01*
X-16258Y36104D01*
X-15663Y35706D01*
X-14961Y35566D01*
X-14258Y35706D01*
X-13663Y36104D01*
X-13265Y36699D01*
X-13125Y37402D01*
X-13191Y37730D01*
X-9885Y41035D01*
X-9508Y40705D01*
D02*
G37*
G36*
X-33169Y32185D02*
X-33179Y31705D01*
X-33564Y30827D01*
X-34257Y30162D01*
X-35150Y29813D01*
X-35630Y29823D01*
X-36110Y29813D01*
X-37003Y30162D01*
X-37696Y30827D01*
X-38081Y31705D01*
X-38091Y32185D01*
X-33169Y32185D01*
D02*
G37*
G36*
X-21679Y-14981D02*
X-21497Y-15542D01*
X-21613Y-15715D01*
X-21707Y-16188D01*
Y-17413D01*
X-21613Y-17886D01*
X-21463Y-18111D01*
X-21498Y-18665D01*
X-21536Y-18761D01*
X-21633Y-18826D01*
X-21990Y-19359D01*
X-22115Y-19988D01*
Y-20101D01*
X-19783D01*
Y-20601D01*
X-19283D01*
Y-22857D01*
X-19096D01*
X-18467Y-22732D01*
X-17933Y-22376D01*
X-17577Y-21843D01*
X-17528Y-21599D01*
X-17019D01*
X-16970Y-21843D01*
X-16614Y-22376D01*
X-16080Y-22732D01*
X-15451Y-22857D01*
X-15264D01*
Y-20601D01*
X-14764D01*
Y-20101D01*
X-12432D01*
Y-19988D01*
X-12557Y-19359D01*
X-12914Y-18826D01*
X-13011Y-18761D01*
X-13049Y-18665D01*
X-13075Y-18257D01*
X-12712Y-17820D01*
X-11685D01*
X-11672Y-17886D01*
X-11404Y-18288D01*
X-11211Y-18417D01*
Y-18985D01*
X-11404Y-19114D01*
X-11672Y-19515D01*
X-11766Y-19988D01*
Y-21213D01*
X-11672Y-21686D01*
X-11404Y-22087D01*
X-11003Y-22355D01*
X-10862Y-22384D01*
Y-25681D01*
X-10873Y-25683D01*
X-11833Y-26080D01*
X-12657Y-26713D01*
X-13290Y-27537D01*
X-13687Y-28497D01*
X-13823Y-29528D01*
X-13687Y-30558D01*
X-13290Y-31518D01*
X-12657Y-32342D01*
X-11833Y-32975D01*
X-11511Y-33108D01*
X-11611Y-33608D01*
X-12598D01*
X-12652Y-33597D01*
X-13588D01*
X-13588Y-33597D01*
X-14024D01*
X-22996Y-24625D01*
Y-16170D01*
X-21781Y-14956D01*
X-21679Y-14981D01*
D02*
G37*
G36*
X21260Y-35827D02*
Y-35827D01*
X21740Y-35817D01*
X22633Y-36166D01*
X23325Y-36830D01*
X23711Y-37709D01*
X23720Y-38189D01*
X23720D01*
X23720Y-38189D01*
Y-38189D01*
X18799Y-38189D01*
X18809Y-37709D01*
X19194Y-36830D01*
X19886Y-36166D01*
X20780Y-35817D01*
X21260Y-35827D01*
D02*
G37*
G36*
X14173D02*
Y-35827D01*
X14653Y-35817D01*
X15547Y-36166D01*
X16239Y-36830D01*
X16624Y-37709D01*
X16634Y-38189D01*
X16634D01*
X16634Y-38189D01*
Y-38189D01*
X11713Y-38189D01*
X11722Y-37709D01*
X12108Y-36830D01*
X12800Y-36166D01*
X13694Y-35817D01*
X14173Y-35827D01*
D02*
G37*
G36*
X7087D02*
Y-35827D01*
X7566Y-35817D01*
X8460Y-36166D01*
X9152Y-36830D01*
X9537Y-37709D01*
X9547Y-38189D01*
X9547D01*
X9547Y-38189D01*
Y-38189D01*
X4626Y-38189D01*
X4636Y-37709D01*
X5021Y-36830D01*
X5713Y-36166D01*
X6607Y-35817D01*
X7087Y-35827D01*
D02*
G37*
G36*
X0D02*
Y-35827D01*
X480Y-35817D01*
X1374Y-36166D01*
X2066Y-36830D01*
X2451Y-37709D01*
X2461Y-38189D01*
X2461D01*
X2461Y-38189D01*
Y-38189D01*
X-2461Y-38189D01*
X-2451Y-37709D01*
X-2066Y-36830D01*
X-1373Y-36166D01*
X-480Y-35817D01*
X0Y-35827D01*
D02*
G37*
G36*
X-7086D02*
Y-35827D01*
X-6607Y-35817D01*
X-5713Y-36166D01*
X-5021Y-36830D01*
X-4636Y-37709D01*
X-4626Y-38189D01*
X-4626D01*
X-4626Y-38189D01*
Y-38189D01*
X-9547Y-38189D01*
X-9537Y-37709D01*
X-9152Y-36830D01*
X-8460Y-36166D01*
X-7566Y-35817D01*
X-7086Y-35827D01*
D02*
G37*
G36*
X-14173D02*
Y-35827D01*
X-13693Y-35817D01*
X-12800Y-36166D01*
X-12108Y-36830D01*
X-11722Y-37709D01*
X-11713Y-38189D01*
X-11713D01*
X-11713Y-38189D01*
Y-38189D01*
X-16634Y-38189D01*
X-16624Y-37709D01*
X-16239Y-36830D01*
X-15547Y-36166D01*
X-14653Y-35817D01*
X-14173Y-35827D01*
D02*
G37*
G36*
X-21260D02*
Y-35827D01*
X-20780Y-35817D01*
X-19886Y-36166D01*
X-19194Y-36830D01*
X-18809Y-37709D01*
X-18799Y-38189D01*
X-18799D01*
X-18799Y-38189D01*
Y-38189D01*
X-23720Y-38189D01*
X-23711Y-37709D01*
X-23325Y-36830D01*
X-22633Y-36166D01*
X-21739Y-35817D01*
X-21260Y-35827D01*
D02*
G37*
G36*
X18800Y-39370D02*
X18800D01*
X18800D01*
D01*
D02*
G37*
G36*
X11713D02*
X11713D01*
X11713D01*
D01*
D02*
G37*
G36*
X4626D02*
X4626D01*
X4626D01*
D01*
D02*
G37*
G36*
X-2460D02*
X-2460D01*
X-2460D01*
D01*
D02*
G37*
G36*
X-9547D02*
X-9547D01*
X-9547D01*
D01*
D02*
G37*
G36*
X-16634D02*
X-16634D01*
X-16634D01*
D01*
D02*
G37*
G36*
X-23720D02*
X-23720D01*
X-23720D01*
D01*
D02*
G37*
%LPC*%
G36*
X39370Y45907D02*
X38095Y45781D01*
X36869Y45410D01*
X35738Y44805D01*
X34748Y43992D01*
X33935Y43002D01*
X33331Y41872D01*
X32959Y40645D01*
X32833Y39370D01*
X32959Y38095D01*
X33331Y36869D01*
X33935Y35738D01*
X34748Y34748D01*
X35738Y33935D01*
X36869Y33331D01*
X38095Y32959D01*
X39370Y32833D01*
X40645Y32959D01*
X41872Y33331D01*
X43002Y33935D01*
X43992Y34748D01*
X44805Y35738D01*
X45410Y36869D01*
X45781Y38095D01*
X45907Y39370D01*
X45781Y40645D01*
X45410Y41872D01*
X44805Y43002D01*
X43992Y43992D01*
X43002Y44805D01*
X41872Y45410D01*
X40645Y45781D01*
X39370Y45907D01*
D02*
G37*
G36*
X42595Y23987D02*
X41142D01*
X40110Y23851D01*
X39148Y23453D01*
X38323Y22819D01*
X37689Y21993D01*
X37485Y21500D01*
X42595D01*
Y23987D01*
D02*
G37*
G36*
Y18500D02*
X37485D01*
X37689Y18007D01*
X38323Y17181D01*
X39148Y16547D01*
X40110Y16149D01*
X41142Y16013D01*
X42595D01*
Y18500D01*
D02*
G37*
G36*
X23228Y8506D02*
X21953Y8380D01*
X20727Y8008D01*
X19597Y7404D01*
X18606Y6591D01*
X17793Y5600D01*
X17189Y4470D01*
X16817Y3244D01*
X16691Y1969D01*
Y-1969D01*
X16817Y-3244D01*
X17189Y-4470D01*
X17793Y-5600D01*
X18606Y-6591D01*
X19597Y-7404D01*
X20727Y-8008D01*
X21953Y-8380D01*
X23228Y-8506D01*
X24504Y-8380D01*
X25730Y-8008D01*
X26860Y-7404D01*
X27851Y-6591D01*
X28664Y-5600D01*
X29268Y-4470D01*
X29640Y-3244D01*
X29765Y-1969D01*
Y1969D01*
X29640Y3244D01*
X29268Y4470D01*
X28664Y5600D01*
X27851Y6591D01*
X26860Y7404D01*
X25730Y8008D01*
X24504Y8380D01*
X23228Y8506D01*
D02*
G37*
G36*
X-40739Y42332D02*
X-46538D01*
Y30892D01*
X-40739D01*
Y42332D01*
D02*
G37*
G36*
X-41142Y23987D02*
X-42595D01*
Y21500D01*
X-37485D01*
X-37689Y21993D01*
X-38323Y22819D01*
X-39148Y23453D01*
X-40110Y23851D01*
X-41142Y23987D01*
D02*
G37*
G36*
X-37485Y18500D02*
X-42595D01*
Y16013D01*
X-41142D01*
X-40110Y16149D01*
X-39148Y16547D01*
X-38323Y17181D01*
X-37689Y18007D01*
X-37485Y18500D01*
D02*
G37*
%LPD*%
G36*
X-42120Y39982D02*
Y39562D01*
X-45144Y38382D01*
Y38789D01*
X-42946Y39610D01*
X-42854Y39645D01*
X-42766Y39676D01*
X-42683Y39702D01*
X-42609Y39724D01*
X-42543Y39746D01*
X-42495Y39759D01*
X-42478Y39763D01*
X-42465Y39768D01*
X-42456Y39772D01*
X-42452D01*
X-42627Y39824D01*
X-42709Y39851D01*
X-42784Y39877D01*
X-42849Y39899D01*
X-42875Y39907D01*
X-42902Y39912D01*
X-42919Y39920D01*
X-42932Y39925D01*
X-42941Y39929D01*
X-42946D01*
X-45144Y40716D01*
Y41153D01*
X-42120Y39982D01*
D02*
G37*
G36*
Y35043D02*
X-42478D01*
Y36534D01*
X-42552Y36481D01*
X-42583Y36455D01*
X-42613Y36433D01*
X-42640Y36411D01*
X-42657Y36394D01*
X-42670Y36381D01*
X-42674Y36376D01*
X-42696Y36355D01*
X-42718Y36328D01*
X-42775Y36267D01*
X-42841Y36197D01*
X-42906Y36123D01*
X-42963Y36053D01*
X-42989Y36022D01*
X-43015Y35996D01*
X-43033Y35974D01*
X-43046Y35957D01*
X-43055Y35948D01*
X-43059Y35944D01*
X-43120Y35874D01*
X-43177Y35804D01*
X-43234Y35743D01*
X-43282Y35686D01*
X-43330Y35633D01*
X-43374Y35590D01*
X-43413Y35546D01*
X-43448Y35511D01*
X-43483Y35476D01*
X-43509Y35450D01*
X-43531Y35428D01*
X-43553Y35406D01*
X-43579Y35384D01*
X-43588Y35376D01*
X-43662Y35314D01*
X-43728Y35262D01*
X-43793Y35218D01*
X-43846Y35183D01*
X-43894Y35157D01*
X-43929Y35140D01*
X-43951Y35131D01*
X-43959Y35127D01*
X-44025Y35100D01*
X-44090Y35083D01*
X-44152Y35065D01*
X-44204Y35057D01*
X-44252Y35052D01*
X-44287Y35048D01*
X-44309D01*
X-44318D01*
X-44383Y35052D01*
X-44444Y35061D01*
X-44506Y35070D01*
X-44558Y35087D01*
X-44663Y35131D01*
X-44746Y35175D01*
X-44785Y35201D01*
X-44816Y35223D01*
X-44846Y35245D01*
X-44868Y35266D01*
X-44886Y35284D01*
X-44903Y35293D01*
X-44908Y35301D01*
X-44912Y35306D01*
X-44956Y35354D01*
X-44995Y35406D01*
X-45026Y35463D01*
X-45052Y35520D01*
X-45096Y35633D01*
X-45126Y35747D01*
X-45135Y35795D01*
X-45144Y35843D01*
X-45148Y35887D01*
X-45152Y35922D01*
X-45157Y35952D01*
Y35996D01*
X-45152Y36075D01*
X-45148Y36149D01*
X-45135Y36219D01*
X-45122Y36285D01*
X-45104Y36346D01*
X-45087Y36403D01*
X-45065Y36455D01*
X-45043Y36503D01*
X-45021Y36547D01*
X-44999Y36582D01*
X-44982Y36612D01*
X-44964Y36639D01*
X-44951Y36660D01*
X-44938Y36674D01*
X-44934Y36682D01*
X-44930Y36687D01*
X-44886Y36730D01*
X-44838Y36770D01*
X-44785Y36809D01*
X-44733Y36840D01*
X-44628Y36892D01*
X-44523Y36927D01*
X-44475Y36940D01*
X-44427Y36953D01*
X-44388Y36962D01*
X-44353Y36971D01*
X-44322Y36975D01*
X-44300D01*
X-44287Y36979D01*
X-44283D01*
X-44243Y36599D01*
X-44344Y36590D01*
X-44431Y36573D01*
X-44510Y36547D01*
X-44571Y36516D01*
X-44624Y36490D01*
X-44658Y36464D01*
X-44680Y36446D01*
X-44689Y36437D01*
X-44741Y36372D01*
X-44781Y36302D01*
X-44811Y36228D01*
X-44829Y36162D01*
X-44842Y36101D01*
X-44846Y36049D01*
X-44851Y36031D01*
Y36005D01*
X-44846Y35913D01*
X-44829Y35830D01*
X-44803Y35760D01*
X-44776Y35699D01*
X-44746Y35651D01*
X-44724Y35620D01*
X-44707Y35598D01*
X-44698Y35590D01*
X-44637Y35537D01*
X-44576Y35498D01*
X-44514Y35467D01*
X-44453Y35450D01*
X-44405Y35437D01*
X-44361Y35432D01*
X-44335Y35428D01*
X-44331D01*
X-44326D01*
X-44248Y35437D01*
X-44165Y35454D01*
X-44090Y35485D01*
X-44021Y35515D01*
X-43964Y35550D01*
X-43916Y35581D01*
X-43898Y35590D01*
X-43885Y35598D01*
X-43881Y35607D01*
X-43876D01*
X-43828Y35642D01*
X-43780Y35686D01*
X-43728Y35734D01*
X-43675Y35786D01*
X-43570Y35896D01*
X-43466Y36005D01*
X-43417Y36062D01*
X-43374Y36110D01*
X-43334Y36158D01*
X-43299Y36197D01*
X-43273Y36228D01*
X-43251Y36254D01*
X-43238Y36272D01*
X-43234Y36276D01*
X-43142Y36385D01*
X-43055Y36486D01*
X-42976Y36569D01*
X-42911Y36634D01*
X-42854Y36691D01*
X-42814Y36730D01*
X-42788Y36752D01*
X-42784Y36761D01*
X-42779D01*
X-42705Y36822D01*
X-42635Y36870D01*
X-42565Y36914D01*
X-42504Y36949D01*
X-42452Y36975D01*
X-42412Y36992D01*
X-42386Y37001D01*
X-42382Y37006D01*
X-42377D01*
X-42329Y37023D01*
X-42286Y37032D01*
X-42242Y37041D01*
X-42203Y37045D01*
X-42168Y37049D01*
X-42141D01*
X-42124D01*
X-42120D01*
Y35043D01*
D02*
G37*
G36*
Y34012D02*
X-42543D01*
Y34436D01*
X-42120D01*
Y34012D01*
D02*
G37*
G36*
X-44064Y33121D02*
X-44095Y33055D01*
X-44125Y32990D01*
X-44156Y32928D01*
X-44182Y32876D01*
X-44204Y32832D01*
X-44221Y32806D01*
X-44226Y32802D01*
Y32797D01*
X-44274Y32719D01*
X-44322Y32649D01*
X-44366Y32588D01*
X-44405Y32539D01*
X-44436Y32496D01*
X-44462Y32470D01*
X-44479Y32448D01*
X-44484Y32443D01*
X-42120D01*
Y32072D01*
X-45157D01*
Y32312D01*
X-45082Y32356D01*
X-45013Y32404D01*
X-44943Y32461D01*
X-44881Y32513D01*
X-44829Y32566D01*
X-44785Y32605D01*
X-44772Y32623D01*
X-44759Y32636D01*
X-44755Y32640D01*
X-44750Y32644D01*
X-44676Y32736D01*
X-44606Y32828D01*
X-44545Y32915D01*
X-44497Y33003D01*
X-44453Y33077D01*
X-44436Y33108D01*
X-44423Y33134D01*
X-44409Y33156D01*
X-44405Y33173D01*
X-44396Y33182D01*
Y33186D01*
X-44038D01*
X-44064Y33121D01*
D02*
G37*
%LPC*%
G36*
X-21260Y23058D02*
X-22099Y22891D01*
X-22810Y22416D01*
X-23285Y21705D01*
X-23452Y20866D01*
X-23285Y20027D01*
X-22810Y19316D01*
X-22099Y18841D01*
X-21260Y18674D01*
X-20647Y18796D01*
X-20330Y18725D01*
X-20111Y18447D01*
X-20045Y18112D01*
X-19719Y17624D01*
X-18554Y16459D01*
Y15074D01*
X-19054Y14922D01*
X-19071Y14948D01*
X-19548Y15425D01*
X-21166Y13808D01*
X-19336Y11979D01*
X-19071Y12244D01*
X-19054Y12270D01*
X-18842Y12269D01*
X-18531Y12152D01*
X-18430Y11643D01*
X-18076Y11114D01*
X-18015Y11052D01*
X-17972Y10835D01*
X-17704Y10434D01*
X-16732Y9461D01*
X-16330Y9194D01*
X-15857Y9099D01*
X-15384Y9194D01*
X-14983Y9461D01*
X-14117Y10328D01*
X-13849Y10729D01*
X-13755Y11202D01*
X-13783Y11343D01*
X-13442Y11725D01*
X-12946Y11717D01*
X-12095Y10867D01*
X-12124Y10687D01*
X-12420Y10275D01*
X-13049Y10150D01*
X-13583Y9793D01*
X-13662Y9714D01*
X-12014Y8065D01*
X-10365Y6417D01*
X-10285Y6496D01*
X-9929Y7029D01*
X-9888Y7235D01*
X-9346Y7399D01*
X-8847Y6901D01*
X-8401Y6602D01*
X-8237Y6161D01*
X-6606Y4529D01*
X-5114Y3037D01*
X-5067Y3107D01*
X-4951Y3689D01*
X-4717Y4039D01*
X-4654Y4052D01*
X-4293Y4293D01*
X-4052Y4654D01*
X-4001Y4911D01*
X-3803Y5195D01*
X-3519Y5393D01*
X-3263Y5444D01*
X-2901Y5685D01*
X-2660Y6046D01*
X-2609Y6303D01*
X-2411Y6587D01*
X-2127Y6785D01*
X-1871Y6836D01*
X-1509Y7077D01*
X-1268Y7438D01*
X-1183Y7864D01*
X-1268Y8291D01*
X-1509Y8652D01*
X-2484Y9626D01*
X-2845Y9868D01*
X-2861Y9871D01*
X-2955Y9964D01*
X-3033Y10513D01*
X-2635Y11109D01*
X-2495Y11811D01*
X-2635Y12513D01*
X-3033Y13109D01*
X-3628Y13507D01*
X-3921Y13565D01*
X-3989Y13892D01*
X-3973Y14085D01*
X-3427Y14450D01*
X-3029Y15046D01*
X-2889Y15748D01*
X-3029Y16450D01*
X-3427Y17046D01*
X-4022Y17444D01*
X-4724Y17583D01*
X-5427Y17444D01*
X-6022Y17046D01*
X-6420Y16450D01*
X-6560Y15748D01*
X-6494Y15420D01*
X-7452Y14463D01*
X-7673Y14132D01*
X-7750Y13742D01*
Y11790D01*
X-8250Y11583D01*
X-8859Y12192D01*
X-9260Y12460D01*
X-9733Y12554D01*
X-9863Y12528D01*
X-11094Y13759D01*
X-11068Y13889D01*
X-11162Y14362D01*
X-11430Y14763D01*
X-12402Y15735D01*
X-12803Y16003D01*
X-13276Y16097D01*
X-13750Y16003D01*
X-14151Y15735D01*
X-14792Y15094D01*
X-15292Y15302D01*
Y16601D01*
X-14693Y17200D01*
X-14367Y17687D01*
X-14252Y18263D01*
X-14367Y18839D01*
X-14693Y19327D01*
X-16354Y20988D01*
X-16842Y21314D01*
X-17254Y21396D01*
X-17877Y22020D01*
X-18407Y22373D01*
X-19031Y22498D01*
X-19831D01*
X-20421Y22891D01*
X-21260Y23058D01*
D02*
G37*
G36*
X-22085Y17170D02*
X-22816Y17024D01*
X-23437Y16610D01*
X-23702Y16344D01*
X-21873Y14515D01*
X-20256Y16132D01*
X-20733Y16610D01*
X-21353Y17024D01*
X-22085Y17170D01*
D02*
G37*
G36*
X-24409Y15637D02*
X-24674Y15372D01*
X-25088Y14752D01*
X-25234Y14020D01*
X-25088Y13289D01*
X-24674Y12669D01*
X-24197Y12191D01*
X-22580Y13808D01*
X-24409Y15637D01*
D02*
G37*
G36*
X-21873Y13101D02*
X-23490Y11484D01*
X-23012Y11007D01*
X-22392Y10593D01*
X-21660Y10447D01*
X-20929Y10593D01*
X-20309Y11007D01*
X-20043Y11272D01*
X-21873Y13101D01*
D02*
G37*
G36*
X-14369Y9007D02*
X-14449Y8927D01*
X-14805Y8394D01*
X-14930Y7765D01*
X-14805Y7136D01*
X-14449Y6602D01*
X-14316Y6470D01*
X-13074Y7712D01*
X-14369Y9007D01*
D02*
G37*
G36*
X-12367Y7005D02*
X-13609Y5762D01*
X-13477Y5630D01*
X-12943Y5273D01*
X-12314Y5148D01*
X-11685Y5273D01*
X-11152Y5630D01*
X-11072Y5709D01*
X-12367Y7005D01*
D02*
G37*
G36*
X-23228Y8506D02*
X-24504Y8380D01*
X-25730Y8008D01*
X-26860Y7404D01*
X-27851Y6591D01*
X-28664Y5600D01*
X-29268Y4470D01*
X-29640Y3244D01*
X-29765Y1969D01*
Y-1969D01*
X-29640Y-3244D01*
X-29268Y-4470D01*
X-28664Y-5600D01*
X-27851Y-6591D01*
X-26860Y-7404D01*
X-25730Y-8008D01*
X-24504Y-8380D01*
X-23228Y-8506D01*
X-21953Y-8380D01*
X-20727Y-8008D01*
X-19597Y-7404D01*
X-18606Y-6591D01*
X-17793Y-5600D01*
X-17189Y-4470D01*
X-16817Y-3244D01*
X-16691Y-1969D01*
Y1969D01*
X-16817Y3244D01*
X-17189Y4470D01*
X-17793Y5600D01*
X-18606Y6591D01*
X-19597Y7404D01*
X-20727Y8008D01*
X-21953Y8380D01*
X-23228Y8506D01*
D02*
G37*
G36*
X17095Y-21101D02*
X15264D01*
Y-22857D01*
X15451D01*
X16080Y-22732D01*
X16614Y-22376D01*
X16970Y-21843D01*
X17095Y-21213D01*
Y-21101D01*
D02*
G37*
G36*
X14264D02*
X12432D01*
Y-21213D01*
X12557Y-21843D01*
X12914Y-22376D01*
X13447Y-22732D01*
X14076Y-22857D01*
X14264D01*
Y-21101D01*
D02*
G37*
G36*
X1500Y-25444D02*
Y-28028D01*
X4083D01*
X3797Y-27336D01*
X3100Y-26428D01*
X2192Y-25731D01*
X1500Y-25444D01*
D02*
G37*
G36*
X-1500D02*
X-2192Y-25731D01*
X-3100Y-26428D01*
X-3797Y-27336D01*
X-4083Y-28028D01*
X-1500D01*
Y-25444D01*
D02*
G37*
G36*
Y-31028D02*
X-4083D01*
X-3797Y-31719D01*
X-3100Y-32627D01*
X-2192Y-33324D01*
X-1500Y-33611D01*
Y-31028D01*
D02*
G37*
G36*
X24168Y-40854D02*
X23195D01*
X22633Y-41393D01*
X21760Y-41734D01*
Y-42377D01*
X22244D01*
X23018Y-42223D01*
X23675Y-41785D01*
X24113Y-41129D01*
X24168Y-40854D01*
D02*
G37*
G36*
X19325D02*
X18352D01*
X18407Y-41129D01*
X18845Y-41785D01*
X19501Y-42223D01*
X20276Y-42377D01*
X20760D01*
Y-41734D01*
X19886Y-41393D01*
X19325Y-40854D01*
D02*
G37*
G36*
X17081Y-40854D02*
X16108D01*
X15547Y-41393D01*
X14673Y-41734D01*
Y-42377D01*
X15158D01*
X15932Y-42223D01*
X16588Y-41785D01*
X17027Y-41129D01*
X17081Y-40854D01*
D02*
G37*
G36*
X12239D02*
X11265D01*
X11320Y-41129D01*
X11759Y-41785D01*
X12415Y-42223D01*
X13189Y-42377D01*
X13673D01*
Y-41734D01*
X12800Y-41393D01*
X12239Y-40854D01*
D02*
G37*
G36*
X9995Y-40854D02*
X9021D01*
X8460Y-41393D01*
X7587Y-41734D01*
Y-42377D01*
X8071D01*
X8845Y-42223D01*
X9501Y-41785D01*
X9940Y-41129D01*
X9995Y-40854D01*
D02*
G37*
G36*
X5152D02*
X4179D01*
X4233Y-41129D01*
X4672Y-41785D01*
X5328Y-42223D01*
X6103Y-42377D01*
X6587D01*
Y-41734D01*
X5713Y-41393D01*
X5152Y-40854D01*
D02*
G37*
G36*
X2908Y-40854D02*
X1935D01*
X1374Y-41393D01*
X500Y-41734D01*
Y-42377D01*
X984D01*
X1759Y-42223D01*
X2415Y-41785D01*
X2853Y-41129D01*
X2908Y-40854D01*
D02*
G37*
G36*
X-1934D02*
X-2908D01*
X-2853Y-41129D01*
X-2415Y-41785D01*
X-1758Y-42223D01*
X-984Y-42377D01*
X-500D01*
Y-41734D01*
X-1373Y-41393D01*
X-1934Y-40854D01*
D02*
G37*
G36*
X-11265Y-40854D02*
X-12239D01*
X-12800Y-41393D01*
X-13673Y-41734D01*
Y-42377D01*
X-13189D01*
X-12415Y-42223D01*
X-11758Y-41785D01*
X-11320Y-41129D01*
X-11265Y-40854D01*
D02*
G37*
G36*
X-16108D02*
X-17081D01*
X-17027Y-41129D01*
X-16588Y-41785D01*
X-15932Y-42223D01*
X-15157Y-42377D01*
X-14673D01*
Y-41734D01*
X-15547Y-41393D01*
X-16108Y-40854D01*
D02*
G37*
G36*
X-18352Y-40854D02*
X-19325D01*
X-19886Y-41393D01*
X-20760Y-41734D01*
Y-42377D01*
X-20276D01*
X-19501Y-42223D01*
X-18845Y-41785D01*
X-18406Y-41129D01*
X-18352Y-40854D01*
D02*
G37*
G36*
X-23194D02*
X-24168D01*
X-24113Y-41129D01*
X-23674Y-41785D01*
X-23018Y-42223D01*
X-22244Y-42377D01*
X-21760D01*
Y-41734D01*
X-22633Y-41393D01*
X-23194Y-40854D01*
D02*
G37*
G36*
X-39370Y-32833D02*
X-40645Y-32959D01*
X-41872Y-33331D01*
X-43002Y-33935D01*
X-43992Y-34748D01*
X-44805Y-35738D01*
X-45410Y-36869D01*
X-45781Y-38095D01*
X-45907Y-39370D01*
X-45781Y-40645D01*
X-45410Y-41872D01*
X-44805Y-43002D01*
X-43992Y-43992D01*
X-43002Y-44805D01*
X-41872Y-45410D01*
X-40645Y-45781D01*
X-39370Y-45907D01*
X-38095Y-45781D01*
X-36869Y-45410D01*
X-35738Y-44805D01*
X-34748Y-43992D01*
X-33935Y-43002D01*
X-33331Y-41872D01*
X-32959Y-40645D01*
X-32833Y-39370D01*
X-32959Y-38095D01*
X-33331Y-36869D01*
X-33935Y-35738D01*
X-34748Y-34748D01*
X-35738Y-33935D01*
X-36869Y-33331D01*
X-38095Y-32959D01*
X-39370Y-32833D01*
D02*
G37*
G36*
X-12432Y-21101D02*
X-14264D01*
Y-22857D01*
X-14076D01*
X-13447Y-22732D01*
X-12914Y-22376D01*
X-12557Y-21843D01*
X-12432Y-21213D01*
Y-21101D01*
D02*
G37*
G36*
X-20283Y-21101D02*
X-22115D01*
Y-21213D01*
X-21990Y-21843D01*
X-21633Y-22376D01*
X-21100Y-22732D01*
X-20471Y-22857D01*
X-20283D01*
Y-21101D01*
D02*
G37*
%LPD*%
D10*
X21260Y-33281D02*
X21740Y-32801D01*
X21260Y-37205D02*
Y-33281D01*
X32443Y-16043D02*
X36400Y-20000D01*
X41339D01*
X41339Y-20000D01*
X14536Y-11287D02*
X18809Y-15560D01*
Y-27569D02*
Y-15560D01*
X5719Y-11287D02*
X14536D01*
X21740Y-32801D02*
Y-30500D01*
X18809Y-27569D02*
X21740Y-30500D01*
X30140Y-13605D02*
X32443Y-15908D01*
X18834Y-13605D02*
X30140D01*
X15116Y-9887D02*
X18834Y-13605D01*
X30534Y-10805D02*
X41339Y0D01*
X19994Y-10805D02*
X30534D01*
X16276Y-7087D02*
X19994Y-10805D01*
X-25616Y30880D02*
X-17094Y39403D01*
X37633Y-9906D02*
X41245D01*
X35335Y-12205D02*
X37633Y-9906D01*
X19414Y-12205D02*
X35335D01*
X15696Y-8487D02*
X19414Y-12205D01*
X32443Y-16043D02*
Y-15908D01*
X41245Y-9906D02*
X41339Y-10000D01*
X-16071Y39403D02*
X-11532Y43942D01*
Y46081D01*
X-10000Y47613D01*
X-25616Y24916D02*
Y30880D01*
X-35433Y15098D02*
X-25616Y24916D01*
X-17094Y39403D02*
X-16071D01*
X-9474Y42888D02*
X-8662D01*
X-14961Y37402D02*
X-9474Y42888D01*
X-23237Y25031D02*
Y31279D01*
X-32762Y15507D02*
X-23237Y25031D01*
Y31279D02*
X-16514Y38003D01*
X-15562D01*
X2853Y-8421D02*
X5719Y-11287D01*
X4245Y-7029D02*
X7103Y-9887D01*
X5637Y-5637D02*
X8487Y-8487D01*
X15696D01*
X7103Y-9887D02*
X15116D01*
X9871Y-7087D02*
X16276D01*
X7029Y-4245D02*
X9871Y-7087D01*
X7464Y-14423D02*
X9843Y-16801D01*
X-2801Y-14423D02*
X7464D01*
X-5720Y-11503D02*
X-2801Y-14423D01*
X7087Y-37008D02*
X9055D01*
X11446Y-34617D01*
X0Y-37008D02*
X1181D01*
X-27216Y-14423D02*
X-23679Y-10886D01*
X-25616Y-15085D02*
X-22817Y-12286D01*
X-17854D01*
X-23679Y-10886D02*
X-18717D01*
X-17854Y-12286D02*
X-8421Y-2853D01*
X-18717Y-10886D02*
X-12205Y-4374D01*
X-17274Y-13686D02*
X-15091Y-11503D01*
X-21954Y-13686D02*
X-17274D01*
X-24016Y-15748D02*
X-21954Y-13686D01*
X-17422Y-15814D02*
X-14994Y-13386D01*
X-18797Y-15814D02*
X-17422D01*
X-19783Y-16801D02*
X-18797Y-15814D01*
X-14994Y-13386D02*
X-12800D01*
X-15091Y-11503D02*
X-14311D01*
X-6578Y-43841D02*
X-1618Y-48800D01*
X14173Y-37008D02*
X14422D01*
X16535Y-31635D02*
Y-29921D01*
X-32762Y12611D02*
Y15507D01*
X-35433Y-7480D02*
Y15098D01*
X-25616Y-25710D02*
Y-15085D01*
X-24016Y-25047D02*
Y-15748D01*
X3937Y-34252D02*
X4331D01*
X1181Y-37008D02*
X3937Y-34252D01*
X-41339Y-20000D02*
X-31496D01*
X-12205Y-930D02*
X-8421Y2853D01*
X-12205Y-4374D02*
Y-930D01*
X-27216Y-26373D02*
Y-14423D01*
X-12641Y-34628D02*
X-9467D01*
X-12652Y-34617D02*
X-12641Y-34628D01*
X-13588Y-34617D02*
X-12652D01*
X-13588Y-34617D02*
X-13588Y-34617D01*
X-14446Y-34617D02*
X-13588D01*
X-24016Y-25047D02*
X-14446Y-34617D01*
X-14173Y-37205D02*
Y-37152D01*
X-9467Y-34628D02*
X-7086Y-37008D01*
Y-37205D02*
Y-37008D01*
X-21260Y-37205D02*
Y-32329D01*
X-27216Y-26373D02*
X-21260Y-32329D01*
X-25616Y-25710D02*
X-14173Y-37152D01*
X-14311Y-11503D02*
X-13794Y-10986D01*
X-13770D01*
X-7029Y-4245D01*
X-9843Y-16801D02*
Y-9843D01*
X-5637Y-5637D01*
X-1206Y-10630D02*
Y-10068D01*
X-2853Y-8421D02*
X-1206Y-10068D01*
X9843Y-16801D02*
X14764D01*
X-7062Y44488D02*
X-4312D01*
X0Y48800D01*
X-8662Y42888D02*
X-7062Y44488D01*
X-1618Y-48800D02*
X0D01*
X13554Y-34617D02*
X16535Y-31635D01*
X11446Y-34617D02*
X13554D01*
X14422Y-37008D02*
X19540Y-31890D01*
X-6731Y9515D02*
X-4245Y7029D01*
X-4331Y9899D02*
Y11811D01*
X-37953Y-10000D02*
X-35433Y-7480D01*
X-41339Y-10000D02*
X-37953D01*
X-6731Y13742D02*
X-4724Y15748D01*
X-6731Y9515D02*
Y13742D01*
X-4331Y9899D02*
X-2853Y8421D01*
X3937Y9505D02*
Y11417D01*
X2853Y8421D02*
X3937Y9505D01*
X-14764Y-16801D02*
X-9843D01*
X-5720Y-8504D02*
X-4245Y-7029D01*
X-5720Y-11503D02*
Y-8504D01*
X-9843Y-20601D02*
X-4921D01*
X-9843Y-29528D02*
Y-20601D01*
X4921D02*
X9843D01*
Y-29528D02*
Y-20601D01*
D11*
X16535Y13752D02*
Y14242D01*
X6960Y4176D02*
X16535Y13752D01*
X16823Y11255D02*
X18674D01*
X8421Y2853D02*
X16823Y11255D01*
X17568Y9455D02*
X19420D01*
X13793Y5680D02*
X17568Y9455D01*
X-29262Y31974D02*
Y31988D01*
X-30035Y31201D02*
X-29262Y31974D01*
X-35630Y31201D02*
X-30035D01*
X-29754Y37500D02*
X-29262Y37008D01*
X-35630Y37500D02*
X-29754D01*
X-22781Y37156D02*
X-22633Y37303D01*
X-25315Y37156D02*
X-22781D01*
X-25462Y37008D02*
X-25315Y37156D01*
X4528Y19882D02*
X6299Y18110D01*
X-9297Y19882D02*
X4528D01*
X-15748Y26333D02*
X-9297Y19882D01*
X-9603Y5776D02*
X-8559D01*
X-7029Y4245D01*
X-7874Y7874D02*
X-5637Y5637D01*
X22520Y11024D02*
X25738Y14242D01*
X20988Y11024D02*
X22520D01*
X19420Y9455D02*
X20988Y11024D01*
X25738Y14242D02*
X26772D01*
X18674Y11255D02*
X21661Y14242D01*
X13793Y-2550D02*
Y5680D01*
X12012Y-4331D02*
X13793Y-2550D01*
X9899Y-4331D02*
X12012D01*
X8421Y-2853D02*
X9899Y-4331D01*
X11417Y11417D02*
Y14242D01*
X5637Y5637D02*
X11417Y11417D01*
X-9843Y33465D02*
X927D01*
X-15748Y27559D02*
X-9843Y33465D01*
X927D02*
X2500Y35038D01*
X-5248Y42245D02*
X14204D01*
X-7500Y39993D02*
X-5248Y42245D01*
X-7500Y38189D02*
Y39993D01*
X7500Y38189D02*
X13233D01*
X2500Y35038D02*
Y38189D01*
X14204Y42245D02*
X26772Y29677D01*
Y18042D02*
Y29677D01*
X13233Y38189D02*
X21661Y29761D01*
Y18042D02*
Y29761D01*
X7874Y27559D02*
X16535Y18898D01*
Y18042D02*
Y18898D01*
X-7874Y27559D02*
X-2431Y22117D01*
X9380D01*
X11417Y20079D01*
Y18042D02*
Y20079D01*
X-15748Y26333D02*
Y27559D01*
X6299Y18042D02*
Y18110D01*
X6509Y9292D02*
Y14032D01*
X4245Y7029D02*
X6509Y9292D01*
X6299Y14242D02*
X6509Y14032D01*
D28*
X-36909Y34350D02*
X-35630D01*
X-4921Y-16801D02*
X0D01*
X4921D01*
X0Y-17717D02*
Y-16801D01*
D29*
X20000Y48800D02*
X23513Y45287D01*
X16487D02*
X20000Y48800D01*
Y-48800D02*
X23983Y-44817D01*
X16487Y-45287D02*
X20000Y-48800D01*
D30*
X-9843Y-29528D02*
D03*
X0D02*
D03*
X9843D02*
D03*
D31*
X-23228Y0D02*
D03*
X23228D02*
D03*
D32*
X0Y27559D02*
D03*
X15748D02*
D03*
X-15748D02*
D03*
D33*
X7874D02*
D03*
X-7874D02*
D03*
D34*
X44094Y20000D02*
D03*
Y10000D02*
D03*
Y0D02*
D03*
Y-10000D02*
D03*
Y-20000D02*
D03*
X-44094D02*
D03*
Y-10000D02*
D03*
Y0D02*
D03*
Y10000D02*
D03*
Y20000D02*
D03*
D35*
X7500Y38189D02*
D03*
X-7500D02*
D03*
X-2500D02*
D03*
X2500D02*
D03*
D36*
X-10000Y-48800D02*
D03*
X10000D02*
D03*
X20000D02*
D03*
X-20000D02*
D03*
X0D02*
D03*
X-20000Y48800D02*
D03*
X-10000D02*
D03*
X0D02*
D03*
X10000D02*
D03*
X20000D02*
D03*
D37*
X-48800Y-20000D02*
D03*
Y-10000D02*
D03*
Y0D02*
D03*
Y10000D02*
D03*
Y20000D02*
D03*
X48800D02*
D03*
Y10000D02*
D03*
Y0D02*
D03*
Y-10000D02*
D03*
Y-20000D02*
D03*
D38*
X-36909Y34350D02*
D03*
X32443Y-16043D02*
D03*
X-34350Y34350D02*
D03*
X-2088Y2088D02*
D03*
Y-2088D02*
D03*
X2088D02*
D03*
Y2088D02*
D03*
X-6578Y-43841D02*
D03*
X16535Y-29921D02*
D03*
X-14930Y-44094D02*
D03*
X4331Y-34252D02*
D03*
X-32762Y12611D02*
D03*
X-14805Y44738D02*
D03*
X-31496Y-20000D02*
D03*
X14919Y-26779D02*
D03*
X27559Y-46505D02*
D03*
X32776Y-41437D02*
D03*
X42126Y-27756D02*
D03*
X-29528Y-37402D02*
D03*
X-37402Y-29528D02*
D03*
X-5512Y-24409D02*
D03*
X12598Y-24016D02*
D03*
X33465Y-1969D02*
D03*
Y3937D02*
D03*
Y9843D02*
D03*
Y15354D02*
D03*
Y21654D02*
D03*
X37402Y27559D02*
D03*
X31496Y31496D02*
D03*
X27559Y39370D02*
D03*
X-33465Y45276D02*
D03*
X-41339D02*
D03*
X-43307Y27559D02*
D03*
X-33465Y25591D02*
D03*
X-16295Y7409D02*
D03*
X-19106Y9317D02*
D03*
X-25591Y10630D02*
D03*
X-25748Y17181D02*
D03*
X-45276Y-29528D02*
D03*
X-27559Y-43307D02*
D03*
X-19750Y-24540D02*
D03*
X-29921Y-10000D02*
D03*
X-13077Y3150D02*
D03*
X0Y11811D02*
D03*
X2066Y-11392D02*
D03*
X0Y-22835D02*
D03*
X22047Y-18504D02*
D03*
X-12800Y-13386D02*
D03*
X-1206Y-10630D02*
D03*
X-22633Y37303D02*
D03*
X-14961Y37402D02*
D03*
X-15268Y-29134D02*
D03*
X-15317Y-24540D02*
D03*
X19540Y-31890D02*
D03*
X-4331Y11811D02*
D03*
X-4724Y15748D02*
D03*
X3937Y11417D02*
D03*
D39*
X-21260Y20866D02*
D03*
D40*
X0Y-17717D02*
D03*
D41*
X-25462Y31988D02*
D03*
X-29262D02*
D03*
X-25462Y37008D02*
D03*
X-29262D02*
D03*
D42*
X-35630Y37500D02*
D03*
X-35630Y31201D02*
D03*
X21260Y-40354D02*
D03*
Y-37205D02*
D03*
X14173Y-40354D02*
D03*
Y-37205D02*
D03*
X7087Y-40354D02*
D03*
Y-37205D02*
D03*
X0Y-40354D02*
D03*
Y-37205D02*
D03*
X-7086Y-40354D02*
D03*
Y-37205D02*
D03*
X-14173Y-40354D02*
D03*
Y-37205D02*
D03*
X-21260Y-40354D02*
D03*
Y-37205D02*
D03*
D43*
X-35630Y34350D02*
D03*
D44*
X-14764Y-20601D02*
D03*
Y-16801D02*
D03*
X-19783D02*
D03*
Y-20601D02*
D03*
X9843Y-16801D02*
D03*
Y-20601D02*
D03*
X-9843Y-16801D02*
D03*
Y-20601D02*
D03*
X-4921Y-16801D02*
D03*
Y-20601D02*
D03*
X4921Y-16801D02*
D03*
Y-20601D02*
D03*
X14764D02*
D03*
Y-16801D02*
D03*
X21661Y18042D02*
D03*
Y14242D02*
D03*
X26772Y18042D02*
D03*
Y14242D02*
D03*
X6299D02*
D03*
Y18042D02*
D03*
X16535D02*
D03*
Y14242D02*
D03*
X11417Y18042D02*
D03*
Y14242D02*
D03*
D45*
X2784Y8352D02*
D03*
X4176Y6960D02*
D03*
X5568Y5568D02*
D03*
X6960Y4176D02*
D03*
X8352Y2784D02*
D03*
X-2784Y-8352D02*
D03*
X-4176Y-6960D02*
D03*
X-5568Y-5568D02*
D03*
X-6960Y-4176D02*
D03*
X-8352Y-2784D02*
D03*
D46*
X8352D02*
D03*
X6960Y-4176D02*
D03*
X5568Y-5568D02*
D03*
X4176Y-6960D02*
D03*
X2784Y-8352D02*
D03*
X-8352Y2784D02*
D03*
X-6960Y4176D02*
D03*
X-5568Y5568D02*
D03*
X-4176Y6960D02*
D03*
X-2784Y8352D02*
D03*
D47*
X0Y0D02*
D03*
D48*
X-15910Y11255D02*
D03*
X-13223Y13942D02*
D03*
X-12367Y7712D02*
D03*
X-9680Y10399D02*
D03*
D49*
X-17206Y18475D02*
D03*
X-21873Y13808D02*
D03*
D50*
X-16923Y12267D02*
Y18758D01*
Y12267D02*
X-15910Y11255D01*
X-19031Y20866D02*
X-16923Y18758D01*
X-21260Y20866D02*
X-19031D01*
D51*
X-9680Y9680D02*
Y10399D01*
Y9680D02*
X-7874Y7874D01*
X-13223Y13942D02*
X-9680Y10399D01*
M02*
