G04*
G04 #@! TF.GenerationSoftware,Altium Limited,Altium Designer,18.1.6 (161)*
G04*
G04 Layer_Color=65535*
%FSLAX25Y25*%
%MOIN*%
G70*
G01*
G75*
%ADD10C,0.01000*%
%ADD11C,0.00800*%
%ADD12C,0.00787*%
%ADD13C,0.00700*%
%ADD14C,0.00400*%
G36*
X36111Y21967D02*
X35437D01*
Y21974D01*
X35423Y21982D01*
X35386Y22026D01*
X35334Y22093D01*
X35260Y22174D01*
X35171Y22278D01*
X35075Y22389D01*
X34971Y22507D01*
X34860Y22633D01*
Y22640D01*
X34845Y22648D01*
X34808Y22692D01*
X34757Y22759D01*
X34683Y22840D01*
X34594Y22937D01*
X34498Y23047D01*
X34290Y23269D01*
X34283Y23277D01*
X34261Y23299D01*
X34231Y23329D01*
X34194Y23366D01*
X34142Y23417D01*
X34083Y23477D01*
X33950Y23603D01*
X33795Y23743D01*
X33639Y23884D01*
X33484Y24010D01*
X33410Y24069D01*
X33343Y24113D01*
X33336D01*
X33328Y24121D01*
X33306Y24135D01*
X33284Y24150D01*
X33210Y24187D01*
X33114Y24231D01*
X33003Y24269D01*
X32870Y24306D01*
X32729Y24335D01*
X32581Y24342D01*
X32574D01*
X32566D01*
X32522D01*
X32455Y24328D01*
X32366Y24313D01*
X32278Y24283D01*
X32181Y24239D01*
X32085Y24172D01*
X32004Y24091D01*
X31996Y24076D01*
X31967Y24047D01*
X31937Y23987D01*
X31893Y23913D01*
X31856Y23817D01*
X31819Y23699D01*
X31797Y23565D01*
X31789Y23410D01*
Y23358D01*
X31797Y23299D01*
X31804Y23218D01*
X31819Y23122D01*
X31834Y23018D01*
X31863Y22899D01*
X31900Y22774D01*
X31908Y22759D01*
X31922Y22715D01*
X31945Y22648D01*
X31974Y22567D01*
X32019Y22470D01*
X32078Y22359D01*
X32137Y22233D01*
X32211Y22115D01*
Y22085D01*
X31538D01*
X31530Y22093D01*
X31515Y22130D01*
X31501Y22174D01*
X31471Y22241D01*
X31441Y22330D01*
X31404Y22433D01*
X31367Y22552D01*
X31330Y22685D01*
Y22692D01*
X31323Y22700D01*
Y22722D01*
X31316Y22751D01*
X31301Y22826D01*
X31279Y22922D01*
X31264Y23033D01*
X31249Y23158D01*
X31242Y23292D01*
X31234Y23425D01*
Y23499D01*
X31242Y23543D01*
Y23610D01*
X31249Y23676D01*
X31264Y23758D01*
X31279Y23847D01*
X31323Y24024D01*
X31382Y24217D01*
X31471Y24402D01*
X31530Y24490D01*
X31589Y24572D01*
X31597Y24579D01*
X31604Y24587D01*
X31626Y24609D01*
X31656Y24638D01*
X31693Y24668D01*
X31730Y24705D01*
X31782Y24742D01*
X31841Y24787D01*
X31982Y24860D01*
X32144Y24927D01*
X32241Y24957D01*
X32337Y24979D01*
X32440Y24986D01*
X32551Y24994D01*
X32566D01*
X32596D01*
X32648D01*
X32714Y24986D01*
X32796Y24979D01*
X32884Y24964D01*
X33062Y24920D01*
X33069D01*
X33099Y24905D01*
X33143Y24890D01*
X33203Y24868D01*
X33269Y24838D01*
X33343Y24809D01*
X33506Y24720D01*
X33513Y24712D01*
X33543Y24698D01*
X33580Y24668D01*
X33632Y24638D01*
X33691Y24594D01*
X33758Y24542D01*
X33898Y24424D01*
X33906Y24417D01*
X33935Y24394D01*
X33972Y24357D01*
X34024Y24313D01*
X34083Y24246D01*
X34157Y24180D01*
X34239Y24106D01*
X34320Y24017D01*
X34335Y24002D01*
X34379Y23958D01*
X34446Y23891D01*
X34527Y23802D01*
X34631Y23691D01*
X34742Y23573D01*
X34860Y23447D01*
X34979Y23306D01*
Y23299D01*
X34993Y23292D01*
X35030Y23247D01*
X35090Y23173D01*
X35164Y23085D01*
X35252Y22981D01*
X35356Y22870D01*
X35556Y22626D01*
Y25194D01*
X36111D01*
Y21967D01*
D02*
G37*
G36*
Y19621D02*
Y18770D01*
X31330Y17031D01*
Y17705D01*
X35548Y19214D01*
X31330Y20717D01*
Y21368D01*
X36111Y19621D01*
D02*
G37*
G36*
X33180Y14612D02*
X33173Y14597D01*
Y14567D01*
X33166Y14537D01*
X33151Y14456D01*
X33136Y14360D01*
Y14338D01*
X33129Y14308D01*
Y14234D01*
X33121Y14182D01*
Y14019D01*
X33129Y13960D01*
X33136Y13894D01*
X33151Y13812D01*
X33173Y13716D01*
X33203Y13620D01*
X33247Y13524D01*
X33254Y13509D01*
X33269Y13479D01*
X33299Y13428D01*
X33336Y13368D01*
X33380Y13287D01*
X33432Y13205D01*
X33499Y13117D01*
X33565Y13028D01*
X36111D01*
Y12421D01*
X32522D01*
Y13028D01*
X33055D01*
Y13035D01*
X33040Y13043D01*
X33010Y13087D01*
X32958Y13154D01*
X32892Y13242D01*
X32825Y13339D01*
X32759Y13442D01*
X32699Y13553D01*
X32648Y13657D01*
X32640Y13672D01*
X32625Y13701D01*
X32611Y13760D01*
X32581Y13827D01*
X32559Y13916D01*
X32544Y14005D01*
X32529Y14108D01*
X32522Y14212D01*
Y14301D01*
X32529Y14375D01*
Y14404D01*
X32537Y14434D01*
Y14449D01*
X32544Y14493D01*
X32551Y14560D01*
X32566Y14656D01*
X33180D01*
Y14612D01*
D02*
G37*
G36*
X34387Y8862D02*
X34401D01*
X34446D01*
X34505Y8869D01*
X34586Y8877D01*
X34675Y8884D01*
X34771Y8906D01*
X34868Y8928D01*
X34964Y8958D01*
X34971Y8965D01*
X35001Y8973D01*
X35053Y8995D01*
X35104Y9032D01*
X35171Y9069D01*
X35238Y9113D01*
X35304Y9172D01*
X35363Y9232D01*
X35371Y9239D01*
X35386Y9261D01*
X35415Y9298D01*
X35452Y9343D01*
X35489Y9402D01*
X35526Y9469D01*
X35563Y9543D01*
X35593Y9624D01*
Y9631D01*
X35608Y9668D01*
X35615Y9713D01*
X35630Y9779D01*
X35645Y9853D01*
X35652Y9942D01*
X35667Y10031D01*
Y10201D01*
X35659Y10268D01*
X35652Y10364D01*
X35630Y10475D01*
X35608Y10601D01*
X35571Y10734D01*
X35526Y10875D01*
Y10882D01*
X35519Y10889D01*
X35504Y10934D01*
X35474Y11000D01*
X35430Y11082D01*
X35341Y11252D01*
X35282Y11333D01*
X35230Y11400D01*
Y11437D01*
X35896D01*
X35904Y11422D01*
X35918Y11385D01*
X35941Y11319D01*
X35970Y11244D01*
X36007Y11148D01*
X36037Y11037D01*
X36074Y10926D01*
X36111Y10808D01*
Y10793D01*
X36126Y10756D01*
X36133Y10689D01*
X36148Y10608D01*
X36163Y10504D01*
X36177Y10394D01*
X36185Y10268D01*
X36192Y10142D01*
Y10053D01*
X36185Y9994D01*
X36177Y9920D01*
X36170Y9831D01*
X36155Y9735D01*
X36133Y9631D01*
X36074Y9409D01*
X36037Y9291D01*
X35992Y9172D01*
X35933Y9061D01*
X35867Y8951D01*
X35793Y8839D01*
X35711Y8743D01*
X35704Y8736D01*
X35689Y8721D01*
X35659Y8699D01*
X35622Y8669D01*
X35571Y8625D01*
X35511Y8588D01*
X35437Y8544D01*
X35356Y8499D01*
X35267Y8447D01*
X35164Y8403D01*
X35053Y8366D01*
X34927Y8329D01*
X34801Y8292D01*
X34653Y8270D01*
X34505Y8255D01*
X34342Y8247D01*
X34335D01*
X34305D01*
X34261D01*
X34194Y8255D01*
X34120Y8262D01*
X34039Y8270D01*
X33943Y8285D01*
X33839Y8307D01*
X33617Y8366D01*
X33499Y8403D01*
X33380Y8447D01*
X33262Y8506D01*
X33151Y8573D01*
X33047Y8647D01*
X32944Y8728D01*
X32936Y8736D01*
X32921Y8751D01*
X32899Y8780D01*
X32862Y8817D01*
X32825Y8862D01*
X32781Y8921D01*
X32729Y8987D01*
X32685Y9069D01*
X32633Y9150D01*
X32588Y9246D01*
X32544Y9350D01*
X32507Y9469D01*
X32470Y9587D01*
X32448Y9713D01*
X32433Y9853D01*
X32426Y9994D01*
Y10061D01*
X32433Y10112D01*
X32440Y10171D01*
X32448Y10245D01*
X32463Y10319D01*
X32477Y10408D01*
X32529Y10586D01*
X32566Y10682D01*
X32603Y10771D01*
X32655Y10860D01*
X32714Y10949D01*
X32781Y11037D01*
X32855Y11111D01*
X32862Y11119D01*
X32877Y11126D01*
X32899Y11148D01*
X32936Y11170D01*
X32973Y11208D01*
X33032Y11237D01*
X33092Y11274D01*
X33166Y11311D01*
X33247Y11348D01*
X33336Y11385D01*
X33432Y11422D01*
X33543Y11452D01*
X33661Y11474D01*
X33787Y11496D01*
X33920Y11503D01*
X34061Y11511D01*
X34387D01*
Y8862D01*
D02*
G37*
G36*
X36111Y6708D02*
X35733D01*
X35741Y6694D01*
X35770Y6664D01*
X35815Y6612D01*
X35867Y6538D01*
X35918Y6457D01*
X35978Y6368D01*
X36037Y6264D01*
X36089Y6161D01*
X36096Y6146D01*
X36103Y6109D01*
X36126Y6057D01*
X36148Y5976D01*
X36170Y5887D01*
X36185Y5783D01*
X36200Y5672D01*
X36207Y5547D01*
Y5487D01*
X36200Y5443D01*
X36192Y5384D01*
X36177Y5325D01*
X36148Y5176D01*
X36089Y5014D01*
X36052Y4932D01*
X36000Y4843D01*
X35948Y4762D01*
X35881Y4681D01*
X35807Y4599D01*
X35719Y4525D01*
X35711Y4518D01*
X35696Y4510D01*
X35667Y4488D01*
X35630Y4466D01*
X35578Y4436D01*
X35519Y4407D01*
X35445Y4370D01*
X35363Y4340D01*
X35267Y4303D01*
X35164Y4266D01*
X35053Y4237D01*
X34934Y4207D01*
X34801Y4185D01*
X34660Y4163D01*
X34505Y4155D01*
X34350Y4148D01*
X34342D01*
X34327D01*
X34305D01*
X34276D01*
X34231Y4155D01*
X34187D01*
X34076Y4163D01*
X33950Y4177D01*
X33809Y4200D01*
X33669Y4229D01*
X33536Y4274D01*
X33528D01*
X33521Y4281D01*
X33476Y4296D01*
X33410Y4326D01*
X33328Y4370D01*
X33232Y4422D01*
X33129Y4481D01*
X33025Y4547D01*
X32929Y4629D01*
X32921Y4636D01*
X32892Y4666D01*
X32847Y4710D01*
X32788Y4769D01*
X32729Y4843D01*
X32670Y4932D01*
X32611Y5029D01*
X32559Y5132D01*
X32551Y5147D01*
X32537Y5184D01*
X32514Y5243D01*
X32492Y5317D01*
X32470Y5413D01*
X32448Y5517D01*
X32433Y5621D01*
X32426Y5739D01*
Y5843D01*
X32433Y5909D01*
X32440Y5991D01*
X32455Y6072D01*
X32492Y6242D01*
Y6250D01*
X32500Y6279D01*
X32514Y6323D01*
X32537Y6383D01*
X32559Y6457D01*
X32588Y6531D01*
X32670Y6708D01*
X31116D01*
Y7315D01*
X36111D01*
Y6708D01*
D02*
G37*
G36*
X34468Y3460D02*
X34542Y3452D01*
X34623Y3445D01*
X34720Y3430D01*
X34823Y3408D01*
X35045Y3356D01*
X35156Y3319D01*
X35275Y3275D01*
X35386Y3223D01*
X35497Y3164D01*
X35608Y3097D01*
X35704Y3016D01*
X35711Y3008D01*
X35726Y2994D01*
X35748Y2971D01*
X35785Y2934D01*
X35822Y2890D01*
X35859Y2831D01*
X35911Y2771D01*
X35955Y2698D01*
X36000Y2616D01*
X36044Y2520D01*
X36089Y2424D01*
X36126Y2320D01*
X36163Y2202D01*
X36185Y2076D01*
X36200Y1950D01*
X36207Y1809D01*
Y1736D01*
X36200Y1684D01*
X36192Y1617D01*
X36177Y1543D01*
X36163Y1462D01*
X36140Y1373D01*
X36081Y1180D01*
X36044Y1077D01*
X35992Y973D01*
X35933Y877D01*
X35867Y781D01*
X35793Y685D01*
X35704Y596D01*
X35696Y588D01*
X35682Y574D01*
X35652Y551D01*
X35608Y529D01*
X35563Y492D01*
X35497Y455D01*
X35423Y418D01*
X35341Y374D01*
X35245Y329D01*
X35141Y292D01*
X35030Y255D01*
X34905Y219D01*
X34771Y196D01*
X34631Y174D01*
X34483Y159D01*
X34320Y152D01*
X34313D01*
X34283D01*
X34239D01*
X34172Y159D01*
X34098Y167D01*
X34017Y174D01*
X33920Y189D01*
X33817Y211D01*
X33595Y263D01*
X33484Y300D01*
X33365Y337D01*
X33254Y389D01*
X33143Y448D01*
X33032Y514D01*
X32936Y596D01*
X32929Y603D01*
X32914Y618D01*
X32892Y640D01*
X32855Y677D01*
X32818Y722D01*
X32773Y781D01*
X32729Y840D01*
X32677Y914D01*
X32633Y1003D01*
X32588Y1092D01*
X32544Y1188D01*
X32507Y1299D01*
X32470Y1417D01*
X32448Y1536D01*
X32433Y1669D01*
X32426Y1809D01*
Y1884D01*
X32433Y1935D01*
X32440Y2002D01*
X32455Y2076D01*
X32470Y2157D01*
X32492Y2246D01*
X32514Y2335D01*
X32551Y2438D01*
X32588Y2535D01*
X32640Y2638D01*
X32699Y2734D01*
X32766Y2838D01*
X32847Y2927D01*
X32936Y3016D01*
X32944Y3023D01*
X32958Y3038D01*
X32988Y3060D01*
X33032Y3090D01*
X33084Y3119D01*
X33143Y3156D01*
X33217Y3201D01*
X33299Y3245D01*
X33395Y3282D01*
X33499Y3326D01*
X33610Y3364D01*
X33735Y3401D01*
X33869Y3423D01*
X34009Y3445D01*
X34157Y3460D01*
X34320Y3467D01*
X34327D01*
X34357D01*
X34401D01*
X34468Y3460D01*
D02*
G37*
G36*
X35896Y-381D02*
X35911Y-418D01*
X35941Y-477D01*
X35970Y-551D01*
X36007Y-640D01*
X36044Y-736D01*
X36111Y-943D01*
Y-958D01*
X36126Y-988D01*
X36133Y-1047D01*
X36148Y-1121D01*
X36163Y-1202D01*
X36177Y-1299D01*
X36185Y-1409D01*
X36192Y-1520D01*
Y-1587D01*
X36185Y-1661D01*
X36177Y-1750D01*
X36163Y-1861D01*
X36148Y-1979D01*
X36118Y-2105D01*
X36081Y-2231D01*
X36074Y-2246D01*
X36059Y-2283D01*
X36037Y-2349D01*
X35992Y-2423D01*
X35948Y-2512D01*
X35889Y-2601D01*
X35815Y-2697D01*
X35733Y-2786D01*
X35726Y-2793D01*
X35689Y-2823D01*
X35645Y-2867D01*
X35578Y-2919D01*
X35489Y-2978D01*
X35393Y-3038D01*
X35282Y-3097D01*
X35156Y-3148D01*
X35149D01*
X35141Y-3156D01*
X35119Y-3163D01*
X35090Y-3171D01*
X35016Y-3185D01*
X34919Y-3208D01*
X34801Y-3237D01*
X34653Y-3252D01*
X34498Y-3267D01*
X34327Y-3274D01*
X34320D01*
X34290D01*
X34246D01*
X34179Y-3267D01*
X34105Y-3260D01*
X34024Y-3252D01*
X33928Y-3237D01*
X33824Y-3215D01*
X33602Y-3156D01*
X33484Y-3119D01*
X33373Y-3074D01*
X33254Y-3015D01*
X33151Y-2949D01*
X33040Y-2875D01*
X32944Y-2793D01*
X32936Y-2786D01*
X32921Y-2771D01*
X32899Y-2741D01*
X32862Y-2705D01*
X32825Y-2660D01*
X32781Y-2601D01*
X32736Y-2534D01*
X32692Y-2453D01*
X32648Y-2364D01*
X32596Y-2268D01*
X32559Y-2164D01*
X32522Y-2053D01*
X32485Y-1935D01*
X32463Y-1802D01*
X32448Y-1668D01*
X32440Y-1520D01*
Y-1469D01*
X32448Y-1409D01*
Y-1328D01*
X32463Y-1232D01*
X32477Y-1136D01*
X32500Y-1025D01*
X32529Y-914D01*
X32537Y-899D01*
X32544Y-862D01*
X32566Y-810D01*
X32588Y-736D01*
X32618Y-647D01*
X32655Y-558D01*
X32744Y-366D01*
X33410D01*
Y-403D01*
X33402Y-418D01*
X33373Y-447D01*
X33336Y-507D01*
X33291Y-573D01*
X33240Y-662D01*
X33188Y-758D01*
X33129Y-862D01*
X33084Y-973D01*
X33077Y-988D01*
X33062Y-1025D01*
X33047Y-1084D01*
X33025Y-1158D01*
X33003Y-1247D01*
X32981Y-1343D01*
X32973Y-1446D01*
X32966Y-1550D01*
Y-1602D01*
X32973Y-1632D01*
Y-1676D01*
X32981Y-1728D01*
X33010Y-1839D01*
X33047Y-1972D01*
X33114Y-2105D01*
X33195Y-2238D01*
X33254Y-2297D01*
X33314Y-2357D01*
X33321D01*
X33328Y-2372D01*
X33351Y-2386D01*
X33380Y-2401D01*
X33417Y-2423D01*
X33462Y-2453D01*
X33513Y-2475D01*
X33573Y-2505D01*
X33639Y-2534D01*
X33713Y-2557D01*
X33795Y-2586D01*
X33891Y-2608D01*
X33987Y-2623D01*
X34091Y-2638D01*
X34209Y-2653D01*
X34327D01*
X34335D01*
X34357D01*
X34387D01*
X34431Y-2645D01*
X34490D01*
X34549Y-2638D01*
X34690Y-2616D01*
X34853Y-2579D01*
X35016Y-2534D01*
X35178Y-2460D01*
X35319Y-2364D01*
X35334Y-2349D01*
X35371Y-2312D01*
X35430Y-2246D01*
X35489Y-2157D01*
X35556Y-2039D01*
X35615Y-1898D01*
X35652Y-1735D01*
X35659Y-1646D01*
X35667Y-1550D01*
Y-1484D01*
X35659Y-1432D01*
Y-1380D01*
X35645Y-1313D01*
X35622Y-1180D01*
Y-1173D01*
X35615Y-1151D01*
X35600Y-1113D01*
X35593Y-1062D01*
X35548Y-951D01*
X35497Y-832D01*
Y-825D01*
X35482Y-810D01*
X35474Y-781D01*
X35452Y-751D01*
X35408Y-669D01*
X35356Y-588D01*
Y-581D01*
X35341Y-566D01*
X35312Y-521D01*
X35267Y-462D01*
X35223Y-403D01*
Y-366D01*
X35889D01*
X35896Y-381D01*
D02*
G37*
G36*
X36111Y-4791D02*
X34076D01*
X34061D01*
X34031D01*
X33987D01*
X33920D01*
X33854Y-4799D01*
X33772Y-4806D01*
X33610Y-4821D01*
X33602D01*
X33573Y-4828D01*
X33536Y-4836D01*
X33484Y-4843D01*
X33373Y-4880D01*
X33321Y-4902D01*
X33269Y-4932D01*
X33262D01*
X33247Y-4947D01*
X33225Y-4969D01*
X33195Y-4991D01*
X33129Y-5065D01*
X33069Y-5161D01*
Y-5169D01*
X33062Y-5191D01*
X33047Y-5221D01*
X33032Y-5265D01*
X33025Y-5324D01*
X33010Y-5391D01*
X33003Y-5465D01*
Y-5598D01*
X33010Y-5642D01*
X33018Y-5709D01*
X33032Y-5790D01*
X33055Y-5872D01*
X33084Y-5968D01*
X33129Y-6072D01*
X33136Y-6086D01*
X33151Y-6116D01*
X33173Y-6168D01*
X33210Y-6234D01*
X33254Y-6316D01*
X33306Y-6397D01*
X33373Y-6493D01*
X33439Y-6582D01*
X36111D01*
Y-7189D01*
X32522D01*
Y-6582D01*
X32929D01*
X32921Y-6567D01*
X32892Y-6530D01*
X32847Y-6479D01*
X32796Y-6404D01*
X32736Y-6316D01*
X32670Y-6219D01*
X32611Y-6116D01*
X32559Y-6005D01*
X32551Y-5990D01*
X32537Y-5953D01*
X32514Y-5894D01*
X32492Y-5813D01*
X32470Y-5716D01*
X32448Y-5613D01*
X32433Y-5502D01*
X32426Y-5383D01*
Y-5324D01*
X32433Y-5287D01*
Y-5235D01*
X32440Y-5184D01*
X32470Y-5050D01*
X32514Y-4910D01*
X32574Y-4762D01*
X32662Y-4621D01*
X32722Y-4555D01*
X32781Y-4495D01*
X32788Y-4488D01*
X32796Y-4481D01*
X32818Y-4466D01*
X32847Y-4443D01*
X32884Y-4421D01*
X32929Y-4399D01*
X32981Y-4369D01*
X33040Y-4340D01*
X33106Y-4310D01*
X33180Y-4281D01*
X33262Y-4259D01*
X33351Y-4236D01*
X33447Y-4214D01*
X33558Y-4199D01*
X33787Y-4185D01*
X36111D01*
Y-4791D01*
D02*
G37*
G36*
Y-11296D02*
X31330D01*
Y-8144D01*
X31893D01*
Y-10660D01*
X33203D01*
Y-8144D01*
X33765D01*
Y-10660D01*
X35548D01*
Y-8144D01*
X36111D01*
Y-11296D01*
D02*
G37*
G36*
X35770Y-14522D02*
X35785Y-14545D01*
X35800Y-14581D01*
X35815Y-14618D01*
X35867Y-14729D01*
X35918Y-14841D01*
Y-14848D01*
X35933Y-14863D01*
X35941Y-14900D01*
X35963Y-14937D01*
X35985Y-14996D01*
X36007Y-15055D01*
X36029Y-15129D01*
X36059Y-15211D01*
Y-15218D01*
X36066Y-15247D01*
X36074Y-15284D01*
X36089Y-15336D01*
X36103Y-15403D01*
X36118Y-15477D01*
X36155Y-15640D01*
Y-15647D01*
X36163Y-15677D01*
X36170Y-15729D01*
X36177Y-15788D01*
X36185Y-15862D01*
X36192Y-15950D01*
X36200Y-16039D01*
Y-16232D01*
X36192Y-16276D01*
Y-16328D01*
X36185Y-16454D01*
X36163Y-16602D01*
X36140Y-16757D01*
X36103Y-16927D01*
X36059Y-17090D01*
Y-17097D01*
X36052Y-17112D01*
X36044Y-17134D01*
X36029Y-17164D01*
X35992Y-17238D01*
X35948Y-17342D01*
X35881Y-17453D01*
X35800Y-17579D01*
X35711Y-17704D01*
X35600Y-17830D01*
X35585Y-17845D01*
X35541Y-17882D01*
X35474Y-17934D01*
X35386Y-18008D01*
X35275Y-18082D01*
X35141Y-18163D01*
X34993Y-18245D01*
X34823Y-18311D01*
X34816D01*
X34801Y-18318D01*
X34779Y-18326D01*
X34742Y-18341D01*
X34697Y-18348D01*
X34638Y-18363D01*
X34579Y-18378D01*
X34505Y-18393D01*
X34350Y-18429D01*
X34165Y-18452D01*
X33950Y-18474D01*
X33728Y-18481D01*
X33721D01*
X33698D01*
X33669D01*
X33624D01*
X33573Y-18474D01*
X33513D01*
X33447Y-18466D01*
X33373Y-18459D01*
X33210Y-18444D01*
X33032Y-18415D01*
X32847Y-18370D01*
X32670Y-18318D01*
X32662D01*
X32648Y-18311D01*
X32625Y-18304D01*
X32588Y-18289D01*
X32507Y-18245D01*
X32396Y-18193D01*
X32270Y-18126D01*
X32137Y-18045D01*
X32004Y-17948D01*
X31878Y-17838D01*
X31863Y-17823D01*
X31826Y-17786D01*
X31774Y-17719D01*
X31700Y-17630D01*
X31626Y-17527D01*
X31545Y-17401D01*
X31471Y-17260D01*
X31404Y-17105D01*
Y-17097D01*
X31397Y-17083D01*
X31390Y-17061D01*
X31375Y-17031D01*
X31367Y-16986D01*
X31353Y-16942D01*
X31316Y-16824D01*
X31286Y-16676D01*
X31264Y-16513D01*
X31242Y-16335D01*
X31234Y-16143D01*
Y-16076D01*
X31242Y-16002D01*
X31249Y-15899D01*
X31256Y-15788D01*
X31271Y-15654D01*
X31301Y-15514D01*
X31330Y-15373D01*
Y-15366D01*
X31338Y-15359D01*
Y-15336D01*
X31345Y-15307D01*
X31375Y-15225D01*
X31404Y-15122D01*
X31449Y-14996D01*
X31508Y-14848D01*
X31575Y-14685D01*
X31656Y-14515D01*
X32411D01*
Y-14567D01*
X32403Y-14574D01*
X32396Y-14581D01*
X32381Y-14604D01*
X32359Y-14633D01*
X32300Y-14715D01*
X32226Y-14811D01*
X32152Y-14929D01*
X32070Y-15063D01*
X31996Y-15203D01*
X31937Y-15351D01*
Y-15359D01*
X31930Y-15366D01*
X31922Y-15388D01*
X31915Y-15418D01*
X31885Y-15499D01*
X31856Y-15603D01*
X31834Y-15729D01*
X31804Y-15869D01*
X31789Y-16025D01*
X31782Y-16187D01*
Y-16247D01*
X31789Y-16320D01*
X31797Y-16402D01*
X31811Y-16506D01*
X31834Y-16616D01*
X31863Y-16727D01*
X31900Y-16838D01*
X31908Y-16853D01*
X31922Y-16890D01*
X31952Y-16942D01*
X31989Y-17009D01*
X32041Y-17090D01*
X32107Y-17179D01*
X32181Y-17268D01*
X32270Y-17357D01*
X32278Y-17364D01*
X32315Y-17393D01*
X32366Y-17431D01*
X32433Y-17482D01*
X32522Y-17541D01*
X32625Y-17593D01*
X32744Y-17652D01*
X32877Y-17704D01*
X32884D01*
X32892Y-17712D01*
X32914D01*
X32944Y-17719D01*
X33018Y-17741D01*
X33121Y-17763D01*
X33247Y-17786D01*
X33395Y-17800D01*
X33550Y-17815D01*
X33728Y-17823D01*
X33735D01*
X33750D01*
X33780D01*
X33809D01*
X33854Y-17815D01*
X33906D01*
X34024Y-17808D01*
X34165Y-17793D01*
X34305Y-17763D01*
X34461Y-17734D01*
X34601Y-17689D01*
X34609D01*
X34616Y-17682D01*
X34660Y-17667D01*
X34727Y-17638D01*
X34808Y-17593D01*
X34905Y-17541D01*
X35001Y-17482D01*
X35097Y-17416D01*
X35186Y-17334D01*
X35193Y-17327D01*
X35223Y-17297D01*
X35267Y-17245D01*
X35319Y-17186D01*
X35378Y-17112D01*
X35437Y-17023D01*
X35497Y-16920D01*
X35541Y-16816D01*
X35548Y-16802D01*
X35556Y-16765D01*
X35578Y-16705D01*
X35593Y-16624D01*
X35615Y-16528D01*
X35637Y-16417D01*
X35645Y-16306D01*
X35652Y-16180D01*
Y-16098D01*
X35645Y-16061D01*
Y-16017D01*
X35630Y-15899D01*
X35615Y-15766D01*
X35585Y-15625D01*
X35548Y-15470D01*
X35497Y-15322D01*
Y-15314D01*
X35489Y-15307D01*
X35482Y-15284D01*
X35467Y-15255D01*
X35430Y-15173D01*
X35378Y-15077D01*
X35312Y-14959D01*
X35230Y-14833D01*
X35134Y-14700D01*
X35023Y-14567D01*
Y-14515D01*
X35770D01*
Y-14522D01*
D02*
G37*
G36*
X36111Y-22514D02*
X35437D01*
Y-22507D01*
X35423Y-22500D01*
X35386Y-22455D01*
X35334Y-22388D01*
X35260Y-22307D01*
X35171Y-22204D01*
X35075Y-22093D01*
X34971Y-21974D01*
X34860Y-21848D01*
Y-21841D01*
X34845Y-21834D01*
X34808Y-21789D01*
X34757Y-21723D01*
X34683Y-21641D01*
X34594Y-21545D01*
X34498Y-21434D01*
X34290Y-21212D01*
X34283Y-21204D01*
X34261Y-21182D01*
X34231Y-21153D01*
X34194Y-21116D01*
X34142Y-21064D01*
X34083Y-21005D01*
X33950Y-20879D01*
X33795Y-20738D01*
X33639Y-20598D01*
X33484Y-20472D01*
X33410Y-20413D01*
X33343Y-20368D01*
X33336D01*
X33328Y-20361D01*
X33306Y-20346D01*
X33284Y-20331D01*
X33210Y-20294D01*
X33114Y-20250D01*
X33003Y-20213D01*
X32870Y-20176D01*
X32729Y-20146D01*
X32581Y-20139D01*
X32574D01*
X32566D01*
X32522D01*
X32455Y-20154D01*
X32366Y-20168D01*
X32278Y-20198D01*
X32181Y-20243D01*
X32085Y-20309D01*
X32004Y-20391D01*
X31996Y-20405D01*
X31967Y-20435D01*
X31937Y-20494D01*
X31893Y-20568D01*
X31856Y-20664D01*
X31819Y-20783D01*
X31797Y-20916D01*
X31789Y-21071D01*
Y-21123D01*
X31797Y-21182D01*
X31804Y-21264D01*
X31819Y-21360D01*
X31834Y-21463D01*
X31863Y-21582D01*
X31900Y-21708D01*
X31908Y-21723D01*
X31922Y-21767D01*
X31945Y-21834D01*
X31974Y-21915D01*
X32019Y-22011D01*
X32078Y-22122D01*
X32137Y-22248D01*
X32211Y-22366D01*
Y-22396D01*
X31538D01*
X31530Y-22388D01*
X31515Y-22352D01*
X31501Y-22307D01*
X31471Y-22241D01*
X31441Y-22152D01*
X31404Y-22048D01*
X31367Y-21930D01*
X31330Y-21797D01*
Y-21789D01*
X31323Y-21782D01*
Y-21759D01*
X31316Y-21730D01*
X31301Y-21656D01*
X31279Y-21560D01*
X31264Y-21449D01*
X31249Y-21323D01*
X31242Y-21190D01*
X31234Y-21057D01*
Y-20982D01*
X31242Y-20938D01*
Y-20872D01*
X31249Y-20805D01*
X31264Y-20723D01*
X31279Y-20635D01*
X31323Y-20457D01*
X31382Y-20265D01*
X31471Y-20080D01*
X31530Y-19991D01*
X31589Y-19909D01*
X31597Y-19902D01*
X31604Y-19895D01*
X31626Y-19873D01*
X31656Y-19843D01*
X31693Y-19813D01*
X31730Y-19776D01*
X31782Y-19739D01*
X31841Y-19695D01*
X31982Y-19621D01*
X32144Y-19554D01*
X32241Y-19525D01*
X32337Y-19502D01*
X32440Y-19495D01*
X32551Y-19488D01*
X32566D01*
X32596D01*
X32648D01*
X32714Y-19495D01*
X32796Y-19502D01*
X32884Y-19517D01*
X33062Y-19562D01*
X33069D01*
X33099Y-19577D01*
X33143Y-19591D01*
X33203Y-19613D01*
X33269Y-19643D01*
X33343Y-19673D01*
X33506Y-19761D01*
X33513Y-19769D01*
X33543Y-19784D01*
X33580Y-19813D01*
X33632Y-19843D01*
X33691Y-19887D01*
X33758Y-19939D01*
X33898Y-20057D01*
X33906Y-20065D01*
X33935Y-20087D01*
X33972Y-20124D01*
X34024Y-20168D01*
X34083Y-20235D01*
X34157Y-20302D01*
X34239Y-20376D01*
X34320Y-20464D01*
X34335Y-20479D01*
X34379Y-20524D01*
X34446Y-20590D01*
X34527Y-20679D01*
X34631Y-20790D01*
X34742Y-20909D01*
X34860Y-21034D01*
X34979Y-21175D01*
Y-21182D01*
X34993Y-21190D01*
X35030Y-21234D01*
X35090Y-21308D01*
X35164Y-21397D01*
X35252Y-21500D01*
X35356Y-21611D01*
X35556Y-21856D01*
Y-19288D01*
X36111D01*
Y-22514D01*
D02*
G37*
G36*
Y-25363D02*
X35622D01*
Y-24734D01*
X31819D01*
Y-25363D01*
X31330D01*
Y-23469D01*
X31819D01*
Y-24098D01*
X35622D01*
Y-23469D01*
X36111D01*
Y-25363D01*
D02*
G37*
G36*
X-18192Y41431D02*
X-18109D01*
X-17915Y41422D01*
X-17711Y41394D01*
X-17489Y41366D01*
X-17286Y41320D01*
X-17184Y41292D01*
X-17101Y41265D01*
X-17091D01*
X-17082Y41255D01*
X-17027Y41228D01*
X-16943Y41191D01*
X-16842Y41126D01*
X-16731Y41043D01*
X-16610Y40932D01*
X-16499Y40802D01*
X-16388Y40654D01*
Y40645D01*
X-16379Y40636D01*
X-16342Y40580D01*
X-16305Y40488D01*
X-16250Y40367D01*
X-16203Y40229D01*
X-16157Y40062D01*
X-16129Y39886D01*
X-16120Y39692D01*
Y39683D01*
Y39664D01*
Y39627D01*
X-16129Y39581D01*
Y39516D01*
X-16139Y39452D01*
X-16176Y39294D01*
X-16231Y39109D01*
X-16305Y38915D01*
X-16416Y38721D01*
X-16490Y38628D01*
X-16564Y38536D01*
X-16573Y38527D01*
X-16583Y38517D01*
X-16610Y38490D01*
X-16647Y38462D01*
X-16694Y38425D01*
X-16749Y38388D01*
X-16823Y38342D01*
X-16897Y38286D01*
X-16990Y38240D01*
X-17091Y38194D01*
X-17202Y38138D01*
X-17323Y38092D01*
X-17461Y38055D01*
X-17600Y38009D01*
X-17757Y37981D01*
X-17924Y37953D01*
X-17905Y37944D01*
X-17868Y37925D01*
X-17813Y37888D01*
X-17739Y37851D01*
X-17572Y37750D01*
X-17489Y37685D01*
X-17415Y37629D01*
X-17397Y37611D01*
X-17350Y37565D01*
X-17276Y37491D01*
X-17184Y37398D01*
X-17082Y37269D01*
X-16962Y37130D01*
X-16842Y36963D01*
X-16712Y36778D01*
X-15611Y35039D01*
X-16666D01*
X-17508Y36371D01*
Y36381D01*
X-17526Y36399D01*
X-17545Y36427D01*
X-17572Y36464D01*
X-17637Y36566D01*
X-17720Y36695D01*
X-17822Y36834D01*
X-17924Y36982D01*
X-18026Y37121D01*
X-18118Y37250D01*
X-18127Y37259D01*
X-18155Y37296D01*
X-18201Y37352D01*
X-18266Y37417D01*
X-18405Y37555D01*
X-18479Y37620D01*
X-18553Y37676D01*
X-18562Y37685D01*
X-18581Y37694D01*
X-18618Y37713D01*
X-18673Y37740D01*
X-18729Y37768D01*
X-18793Y37796D01*
X-18941Y37842D01*
X-18951D01*
X-18969Y37851D01*
X-19006D01*
X-19052Y37861D01*
X-19117Y37870D01*
X-19191D01*
X-19293Y37879D01*
X-20384D01*
Y35039D01*
X-21235D01*
Y41440D01*
X-18266D01*
X-18192Y41431D01*
D02*
G37*
%LPC*%
G36*
X33920Y10926D02*
X33913D01*
X33898D01*
X33876D01*
X33839Y10919D01*
X33758Y10911D01*
X33654Y10897D01*
X33536Y10867D01*
X33410Y10823D01*
X33291Y10763D01*
X33188Y10682D01*
X33173Y10675D01*
X33143Y10638D01*
X33106Y10578D01*
X33055Y10504D01*
X33003Y10401D01*
X32966Y10283D01*
X32936Y10135D01*
X32921Y9964D01*
Y9920D01*
X32929Y9883D01*
Y9846D01*
X32936Y9794D01*
X32958Y9683D01*
X32988Y9557D01*
X33040Y9431D01*
X33114Y9306D01*
X33210Y9187D01*
X33225Y9172D01*
X33262Y9143D01*
X33321Y9091D01*
X33410Y9039D01*
X33513Y8980D01*
X33632Y8928D01*
X33765Y8884D01*
X33920Y8862D01*
Y10926D01*
D02*
G37*
G36*
X35230Y6708D02*
X33180D01*
X33173Y6701D01*
X33166Y6664D01*
X33143Y6620D01*
X33121Y6560D01*
X33099Y6486D01*
X33077Y6412D01*
X33032Y6264D01*
Y6257D01*
X33025Y6227D01*
X33018Y6190D01*
X33010Y6138D01*
X33003Y6079D01*
X32995Y6005D01*
X32988Y5843D01*
Y5791D01*
X32995Y5761D01*
Y5717D01*
X33003Y5665D01*
X33032Y5554D01*
X33077Y5428D01*
X33136Y5295D01*
X33225Y5169D01*
X33284Y5102D01*
X33343Y5051D01*
X33351D01*
X33358Y5036D01*
X33380Y5029D01*
X33410Y5006D01*
X33447Y4984D01*
X33484Y4962D01*
X33536Y4940D01*
X33595Y4910D01*
X33661Y4880D01*
X33735Y4858D01*
X33906Y4814D01*
X34105Y4784D01*
X34335Y4769D01*
X34342D01*
X34364D01*
X34394D01*
X34438D01*
X34490Y4777D01*
X34557Y4784D01*
X34697Y4799D01*
X34853Y4821D01*
X35016Y4858D01*
X35164Y4910D01*
X35304Y4984D01*
X35319Y4992D01*
X35356Y5029D01*
X35408Y5080D01*
X35467Y5154D01*
X35526Y5251D01*
X35578Y5376D01*
X35615Y5517D01*
X35622Y5598D01*
X35630Y5687D01*
Y5731D01*
X35622Y5783D01*
X35615Y5850D01*
X35600Y5931D01*
X35585Y6020D01*
X35556Y6116D01*
X35519Y6213D01*
X35511Y6227D01*
X35497Y6257D01*
X35474Y6309D01*
X35437Y6375D01*
X35400Y6449D01*
X35349Y6531D01*
X35230Y6708D01*
D02*
G37*
G36*
X34446Y2846D02*
X34320D01*
X34313D01*
X34290D01*
X34253D01*
X34209Y2838D01*
X34150D01*
X34083Y2831D01*
X33935Y2809D01*
X33765Y2779D01*
X33595Y2727D01*
X33432Y2661D01*
X33358Y2616D01*
X33291Y2564D01*
X33284D01*
X33277Y2550D01*
X33240Y2513D01*
X33180Y2453D01*
X33121Y2365D01*
X33062Y2261D01*
X33003Y2128D01*
X32966Y1980D01*
X32951Y1898D01*
Y1765D01*
X32958Y1728D01*
Y1684D01*
X32966Y1639D01*
X32995Y1528D01*
X33032Y1402D01*
X33092Y1277D01*
X33180Y1151D01*
X33232Y1092D01*
X33291Y1040D01*
X33299D01*
X33306Y1025D01*
X33328Y1018D01*
X33358Y996D01*
X33388Y981D01*
X33432Y958D01*
X33484Y929D01*
X33550Y907D01*
X33617Y884D01*
X33691Y855D01*
X33780Y833D01*
X33869Y818D01*
X33972Y796D01*
X34076Y788D01*
X34194Y773D01*
X34320D01*
X34327D01*
X34350D01*
X34387D01*
X34431Y781D01*
X34490D01*
X34549Y788D01*
X34697Y810D01*
X34868Y840D01*
X35038Y892D01*
X35201Y958D01*
X35275Y1003D01*
X35341Y1047D01*
X35356Y1062D01*
X35393Y1099D01*
X35452Y1158D01*
X35511Y1247D01*
X35571Y1351D01*
X35630Y1484D01*
X35667Y1639D01*
X35674Y1721D01*
X35682Y1809D01*
Y1854D01*
X35674Y1891D01*
X35667Y1980D01*
X35637Y2083D01*
X35600Y2202D01*
X35541Y2327D01*
X35452Y2453D01*
X35400Y2513D01*
X35341Y2564D01*
X35334D01*
X35326Y2579D01*
X35304Y2594D01*
X35275Y2609D01*
X35238Y2631D01*
X35201Y2653D01*
X35149Y2675D01*
X35082Y2705D01*
X35016Y2734D01*
X34942Y2757D01*
X34860Y2779D01*
X34764Y2801D01*
X34668Y2823D01*
X34557Y2831D01*
X34446Y2846D01*
D02*
G37*
G36*
X-18368Y40728D02*
X-20384D01*
Y38610D01*
X-18479D01*
X-18368Y38619D01*
X-18238Y38628D01*
X-18090Y38638D01*
X-17942Y38656D01*
X-17794Y38684D01*
X-17665Y38721D01*
X-17646Y38730D01*
X-17609Y38749D01*
X-17554Y38776D01*
X-17480Y38813D01*
X-17397Y38869D01*
X-17313Y38934D01*
X-17230Y39017D01*
X-17165Y39109D01*
X-17156Y39119D01*
X-17138Y39156D01*
X-17110Y39211D01*
X-17073Y39285D01*
X-17045Y39368D01*
X-17017Y39461D01*
X-16999Y39572D01*
X-16990Y39683D01*
Y39692D01*
Y39701D01*
X-16999Y39757D01*
X-17008Y39840D01*
X-17027Y39951D01*
X-17073Y40062D01*
X-17128Y40192D01*
X-17212Y40312D01*
X-17323Y40432D01*
X-17341Y40441D01*
X-17387Y40478D01*
X-17461Y40525D01*
X-17582Y40580D01*
X-17720Y40636D01*
X-17905Y40682D01*
X-18118Y40719D01*
X-18368Y40728D01*
D02*
G37*
%LPD*%
D10*
X-9790Y32315D02*
G03*
X-9790Y44063I9790J5874D01*
G01*
X9843Y38189D02*
G03*
X9843Y38189I-9843J0D01*
G01*
X-9790Y32315D02*
Y44063D01*
D11*
X11900Y0D02*
G03*
X11900Y0I-11900J0D01*
G01*
X-24409Y-23204D02*
G03*
X-21235Y-26378I3174J0D01*
G01*
X21300Y-26378D02*
G03*
X24500Y-23204I13J3187D01*
G01*
Y23300D02*
G03*
X21300Y26400I-3150J-50D01*
G01*
X-21235D02*
G03*
X-24409Y23300I-37J-3137D01*
G01*
Y-23204D02*
Y-11024D01*
X-21235Y-26378D02*
X-13780D01*
X13780D02*
X21300D01*
X24500Y-23204D02*
Y-11024D01*
Y11024D02*
Y23300D01*
X20079Y26400D02*
X21300D01*
X-21235D02*
X-20079D01*
X-24409Y11024D02*
Y23300D01*
D12*
X77672Y18333D02*
X79339Y20000D01*
X77672Y21667D02*
X79339Y20000D01*
X77672Y8333D02*
X79339Y10000D01*
X77672Y11667D02*
X79339Y10000D01*
X77672Y-1667D02*
X79339Y0D01*
X77672Y1667D02*
X79339Y0D01*
X51339Y-8333D02*
X77673Y-8333D01*
X51339Y-1667D02*
X77673D01*
X77672Y-11667D02*
X79339Y-10000D01*
X77672Y-8333D02*
X79339Y-10000D01*
X77672Y-21667D02*
X79339Y-20000D01*
X77672Y-18333D02*
X79339Y-20000D01*
X51339Y-18333D02*
X77673D01*
X51339Y-25000D02*
Y25000D01*
Y-21667D02*
X77673D01*
X51339Y18333D02*
X77673D01*
X51339Y21667D02*
X77673Y21667D01*
X51339Y1667D02*
X77673D01*
X51339Y11667D02*
X77673D01*
X46339Y25000D02*
X51339Y25000D01*
Y8333D02*
X77673D01*
X51339Y-11667D02*
X77673D01*
X46339Y-25000D02*
X51339D01*
X46339D02*
Y25000D01*
X-46339Y-25000D02*
Y25000D01*
X-77673Y-21667D02*
X-51339Y-21667D01*
X-79339Y-20000D02*
X-77672Y-21667D01*
X-79339Y-20000D02*
X-77672Y-18333D01*
X-77673D02*
X-51339D01*
X-77673Y-11667D02*
X-51339D01*
X-79339Y-10000D02*
X-77672Y-11667D01*
X-79339Y-10000D02*
X-77672Y-8333D01*
X-77673D02*
X-51339D01*
X-77673Y-1667D02*
X-51339D01*
X-79339Y-0D02*
X-77672Y-1667D01*
X-79339Y-0D02*
X-77672Y1667D01*
X-77673D02*
X-51339D01*
X-77673Y8333D02*
X-51339Y8333D01*
X-79339Y10000D02*
X-77672Y8333D01*
X-79339Y10000D02*
X-77672Y11667D01*
X-77673D02*
X-51339D01*
X-77673Y18333D02*
X-51339D01*
X-79339Y20000D02*
X-77672Y18333D01*
X-79339Y20000D02*
X-77672Y21667D01*
X-77673D02*
X-51339D01*
Y25000D02*
X-46339D01*
X-51339Y-25000D02*
Y25000D01*
Y-25000D02*
X-46339Y-25000D01*
X25000Y-53800D02*
Y-43800D01*
X-25000Y-53800D02*
X25000D01*
X-25000Y-43800D02*
X25000D01*
X-25000Y-53800D02*
Y-43800D01*
X-53800Y25000D02*
X-43800D01*
Y-25000D02*
Y25000D01*
X-53800Y-25000D02*
Y25000D01*
Y-25000D02*
X-43800D01*
X25000Y43800D02*
Y53800D01*
X-25000Y43800D02*
X25000D01*
X-25000Y53800D02*
X25000D01*
X-25000Y43800D02*
Y53800D01*
X43800Y-25000D02*
X53800D01*
X43800D02*
Y25000D01*
X53800Y-25000D02*
Y25000D01*
X43800D02*
X53800D01*
D13*
X-12228Y-39025D02*
X-12761Y-38491D01*
X-13827D01*
X-14361Y-39025D01*
Y-39558D01*
X-13827Y-40091D01*
X-12761D01*
X-12228Y-40624D01*
Y-41157D01*
X-12761Y-41690D01*
X-13827D01*
X-14361Y-41157D01*
X-9029Y-39025D02*
X-9562Y-38491D01*
X-10628D01*
X-11162Y-39025D01*
Y-41157D01*
X-10628Y-41690D01*
X-9562D01*
X-9029Y-41157D01*
X-7963Y-38491D02*
Y-41690D01*
X-5830D01*
X-24866Y-38491D02*
X-23799D01*
X-24332D01*
Y-41690D01*
X-24866D01*
X-23799D01*
X-22200D02*
Y-38491D01*
X-20067Y-41690D01*
Y-38491D01*
X-19001D02*
X-16868D01*
X-17935D01*
Y-41690D01*
X-2228Y-39025D02*
X-2761Y-38491D01*
X-3827D01*
X-4361Y-39025D01*
Y-39558D01*
X-3827Y-40091D01*
X-2761D01*
X-2228Y-40624D01*
Y-41157D01*
X-2761Y-41690D01*
X-3827D01*
X-4361Y-41157D01*
X-1162Y-38491D02*
Y-41690D01*
X438D01*
X971Y-41157D01*
Y-39025D01*
X438Y-38491D01*
X-1162D01*
X2037Y-41690D02*
Y-39558D01*
X3104Y-38491D01*
X4170Y-39558D01*
Y-41690D01*
Y-40091D01*
X2037D01*
X18417Y-40045D02*
X21749D01*
X8180Y-40020D02*
X11513D01*
X9846Y-38354D02*
Y-41687D01*
D14*
X-26772Y42520D02*
X-29271D01*
Y43769D01*
X-28854Y44186D01*
X-28021D01*
X-27605Y43769D01*
Y42520D01*
X-29271Y46685D02*
Y45019D01*
X-28021D01*
X-28438Y45852D01*
Y46268D01*
X-28021Y46685D01*
X-27188D01*
X-26772Y46268D01*
Y45435D01*
X-27188Y45019D01*
X29134Y-47638D02*
X26635D01*
Y-46388D01*
X27051Y-45972D01*
X27884D01*
X28301Y-46388D01*
Y-47638D01*
X26635Y-43472D02*
X27051Y-44306D01*
X27884Y-45139D01*
X28717D01*
X29134Y-44722D01*
Y-43889D01*
X28717Y-43472D01*
X28301D01*
X27884Y-43889D01*
Y-45139D01*
X-1575Y34389D02*
Y31890D01*
X-325D01*
X91Y32306D01*
Y33972D01*
X-325Y34389D01*
X-1575D01*
X924Y31890D02*
X1757D01*
X1341D01*
Y34389D01*
X924Y33972D01*
X-46850Y-29134D02*
Y-26635D01*
X-45601D01*
X-45184Y-27051D01*
Y-27884D01*
X-45601Y-28301D01*
X-46850D01*
X-44351Y-29134D02*
X-43518D01*
X-43935D01*
Y-26635D01*
X-44351Y-27051D01*
X47638Y-29134D02*
Y-31633D01*
X46388D01*
X45972Y-31216D01*
Y-30384D01*
X46388Y-29967D01*
X47638D01*
X43472Y-29134D02*
X45139D01*
X43472Y-30800D01*
Y-31216D01*
X43889Y-31633D01*
X44722D01*
X45139Y-31216D01*
X-27559Y12598D02*
X-30058D01*
Y13848D01*
X-29642Y14265D01*
X-28809D01*
X-28392Y13848D01*
Y12598D01*
Y13431D02*
X-27559Y14265D01*
Y15514D02*
Y16347D01*
X-27976Y16764D01*
X-28809D01*
X-29225Y16347D01*
Y15514D01*
X-28809Y15098D01*
X-27976D01*
X-27559Y15514D01*
X-29642Y18013D02*
X-29225D01*
Y17597D01*
Y18430D01*
Y18013D01*
X-27976D01*
X-27559Y18430D01*
Y19680D02*
Y20513D01*
Y20096D01*
X-30058D01*
X-29642Y19680D01*
M02*
