G04*
G04 #@! TF.GenerationSoftware,Altium Limited,Altium Designer,18.1.6 (161)*
G04*
G04 Layer_Physical_Order=2*
G04 Layer_Color=36540*
%FSLAX25Y25*%
%MOIN*%
G70*
G01*
G75*
%ADD26C,0.03937*%
%ADD27O,0.11811X0.05906*%
%ADD29O,0.05900X0.07800*%
%ADD32O,0.08000X0.07500*%
%ADD33O,0.07500X0.08000*%
%ADD34C,0.02400*%
G36*
X41094Y48035D02*
X42751Y47533D01*
X44279Y46716D01*
X45617Y45617D01*
X46716Y44279D01*
X47533Y42751D01*
X48035Y41094D01*
X48201Y39411D01*
X48193Y39370D01*
Y24961D01*
X47560Y24878D01*
X46404Y24399D01*
X45867Y23987D01*
X45594D01*
Y20000D01*
Y16013D01*
X45867D01*
X46404Y15601D01*
X47560Y15122D01*
X48106Y15050D01*
Y14546D01*
X47664Y14488D01*
X46606Y14050D01*
X45998Y13583D01*
X41142D01*
X40214Y13461D01*
X39350Y13103D01*
X38608Y12534D01*
X38038Y11792D01*
X37680Y10927D01*
X37558Y10000D01*
X37680Y9072D01*
X38038Y8208D01*
X38608Y7466D01*
X39350Y6897D01*
X40214Y6539D01*
X41142Y6417D01*
X45998D01*
X46606Y5950D01*
X47664Y5512D01*
X48193Y5442D01*
Y4558D01*
X47664Y4488D01*
X46606Y4050D01*
X45998Y3583D01*
X41142D01*
X40214Y3461D01*
X39350Y3103D01*
X38608Y2534D01*
X38038Y1792D01*
X37680Y927D01*
X37558Y0D01*
X37680Y-927D01*
X38038Y-1792D01*
X38608Y-2534D01*
X39350Y-3103D01*
X40214Y-3461D01*
X41142Y-3583D01*
X45998D01*
X46606Y-4050D01*
X47664Y-4488D01*
X48193Y-4558D01*
Y-5442D01*
X47664Y-5512D01*
X46606Y-5950D01*
X45998Y-6417D01*
X41142D01*
X40214Y-6539D01*
X39350Y-6897D01*
X38608Y-7466D01*
X38038Y-8208D01*
X37680Y-9072D01*
X37558Y-10000D01*
X37680Y-10927D01*
X38038Y-11792D01*
X38608Y-12534D01*
X39350Y-13103D01*
X40214Y-13461D01*
X41142Y-13583D01*
X45998D01*
X46606Y-14050D01*
X47664Y-14488D01*
X48193Y-14558D01*
Y-15442D01*
X47664Y-15512D01*
X46606Y-15950D01*
X45998Y-16417D01*
X41142D01*
X40214Y-16539D01*
X39350Y-16897D01*
X38608Y-17466D01*
X38038Y-18208D01*
X37680Y-19073D01*
X37558Y-20000D01*
X37680Y-20928D01*
X38038Y-21792D01*
X38608Y-22534D01*
X39350Y-23103D01*
X40214Y-23461D01*
X41142Y-23583D01*
X45998D01*
X46606Y-24050D01*
X47664Y-24488D01*
X48193Y-24558D01*
Y-39370D01*
X48201Y-39411D01*
X48035Y-41094D01*
X47533Y-42751D01*
X46716Y-44279D01*
X45617Y-45617D01*
X44279Y-46716D01*
X42751Y-47533D01*
X41094Y-48035D01*
X39411Y-48201D01*
X39370Y-48193D01*
X24961D01*
X24878Y-47560D01*
X24399Y-46404D01*
X23638Y-45412D01*
X22646Y-44651D01*
X21490Y-44172D01*
X20250Y-44009D01*
X19750D01*
X18510Y-44172D01*
X17355Y-44651D01*
X16362Y-45412D01*
X15601Y-46404D01*
X15122Y-47560D01*
X15050Y-48106D01*
X14546D01*
X14488Y-47664D01*
X14050Y-46606D01*
X13352Y-45698D01*
X12444Y-45000D01*
X11386Y-44562D01*
X10250Y-44412D01*
X9750D01*
X8614Y-44562D01*
X7556Y-45000D01*
X6647Y-45698D01*
X5950Y-46606D01*
X5512Y-47664D01*
X5442Y-48193D01*
X4558D01*
X4488Y-47664D01*
X4050Y-46606D01*
X3353Y-45698D01*
X2444Y-45000D01*
X1386Y-44562D01*
X250Y-44412D01*
X-250D01*
X-1386Y-44562D01*
X-2444Y-45000D01*
X-3353Y-45698D01*
X-4050Y-46606D01*
X-4488Y-47664D01*
X-4558Y-48193D01*
X-5442D01*
X-5512Y-47664D01*
X-5950Y-46606D01*
X-6647Y-45698D01*
X-6890Y-45512D01*
X-6678Y-45044D01*
X-6578Y-45064D01*
X-6110Y-44971D01*
X-5713Y-44706D01*
X-5447Y-44309D01*
X-5354Y-43841D01*
X-5447Y-43372D01*
X-5713Y-42975D01*
X-6110Y-42710D01*
X-6578Y-42617D01*
X-7046Y-42710D01*
X-7443Y-42975D01*
X-7708Y-43372D01*
X-7801Y-43841D01*
X-7708Y-44309D01*
X-7627Y-44430D01*
X-7959Y-44833D01*
X-8614Y-44562D01*
X-9750Y-44412D01*
X-10250D01*
X-11386Y-44562D01*
X-12444Y-45000D01*
X-13352Y-45698D01*
X-14050Y-46606D01*
X-14488Y-47664D01*
X-14558Y-48193D01*
X-15442D01*
X-15512Y-47664D01*
X-15950Y-46606D01*
X-16647Y-45698D01*
X-17556Y-45000D01*
X-18614Y-44562D01*
X-19750Y-44412D01*
X-20250D01*
X-21386Y-44562D01*
X-22444Y-45000D01*
X-23352Y-45698D01*
X-24050Y-46606D01*
X-24488Y-47664D01*
X-24558Y-48193D01*
X-39370D01*
X-39411Y-48201D01*
X-41094Y-48035D01*
X-42751Y-47533D01*
X-44279Y-46716D01*
X-45617Y-45617D01*
X-46716Y-44279D01*
X-47533Y-42751D01*
X-48035Y-41094D01*
X-48201Y-39411D01*
X-48193Y-39370D01*
Y-24558D01*
X-47664Y-24488D01*
X-46606Y-24050D01*
X-45998Y-23583D01*
X-41142D01*
X-40214Y-23461D01*
X-39350Y-23103D01*
X-38608Y-22534D01*
X-38038Y-21792D01*
X-37680Y-20928D01*
X-37558Y-20000D01*
X-37680Y-19073D01*
X-38038Y-18208D01*
X-38608Y-17466D01*
X-39350Y-16897D01*
X-40214Y-16539D01*
X-41142Y-16417D01*
X-45998D01*
X-46606Y-15950D01*
X-47664Y-15512D01*
X-48193Y-15442D01*
Y-14558D01*
X-47664Y-14488D01*
X-46606Y-14050D01*
X-45998Y-13583D01*
X-41142D01*
X-40214Y-13461D01*
X-39350Y-13103D01*
X-38608Y-12534D01*
X-38038Y-11792D01*
X-37680Y-10927D01*
X-37558Y-10000D01*
X-37680Y-9072D01*
X-38038Y-8208D01*
X-38608Y-7466D01*
X-39350Y-6897D01*
X-40214Y-6539D01*
X-41142Y-6417D01*
X-45998D01*
X-46606Y-5950D01*
X-47664Y-5512D01*
X-48193Y-5442D01*
Y-4558D01*
X-47664Y-4488D01*
X-46606Y-4050D01*
X-45998Y-3583D01*
X-41142D01*
X-40214Y-3461D01*
X-39350Y-3103D01*
X-38608Y-2534D01*
X-38038Y-1792D01*
X-37680Y-927D01*
X-37558Y0D01*
X-37680Y927D01*
X-38038Y1792D01*
X-38608Y2534D01*
X-39350Y3103D01*
X-40214Y3461D01*
X-41142Y3583D01*
X-45998D01*
X-46606Y4050D01*
X-47664Y4488D01*
X-48193Y4558D01*
Y5442D01*
X-47664Y5512D01*
X-46606Y5950D01*
X-45998Y6417D01*
X-41142D01*
X-40214Y6539D01*
X-39350Y6897D01*
X-38608Y7466D01*
X-38038Y8208D01*
X-37680Y9072D01*
X-37558Y10000D01*
X-37680Y10927D01*
X-38038Y11792D01*
X-38608Y12534D01*
X-39350Y13103D01*
X-40214Y13461D01*
X-41142Y13583D01*
X-45998D01*
X-46606Y14050D01*
X-47664Y14488D01*
X-48106Y14546D01*
Y15050D01*
X-47560Y15122D01*
X-46404Y15601D01*
X-45867Y16013D01*
X-45594D01*
Y20000D01*
Y23987D01*
X-45867D01*
X-46404Y24399D01*
X-47560Y24878D01*
X-48193Y24961D01*
Y39370D01*
X-48201Y39411D01*
X-48035Y41094D01*
X-47533Y42751D01*
X-46716Y44279D01*
X-45617Y45617D01*
X-44279Y46716D01*
X-42751Y47533D01*
X-41094Y48035D01*
X-39411Y48201D01*
X-39370Y48193D01*
X-24558D01*
X-24488Y47664D01*
X-24050Y46606D01*
X-23352Y45698D01*
X-22444Y45000D01*
X-21386Y44562D01*
X-20250Y44412D01*
X-19750D01*
X-18614Y44562D01*
X-17556Y45000D01*
X-16647Y45698D01*
X-15950Y46606D01*
X-15512Y47664D01*
X-15442Y48193D01*
X-14558D01*
X-14488Y47664D01*
X-14050Y46606D01*
X-13352Y45698D01*
X-12444Y45000D01*
X-11386Y44562D01*
X-10250Y44412D01*
X-9750D01*
X-8614Y44562D01*
X-7556Y45000D01*
X-6647Y45698D01*
X-5950Y46606D01*
X-5512Y47664D01*
X-5442Y48193D01*
X-4558D01*
X-4488Y47664D01*
X-4050Y46606D01*
X-3353Y45698D01*
X-2444Y45000D01*
X-1386Y44562D01*
X-250Y44412D01*
X250D01*
X1386Y44562D01*
X2444Y45000D01*
X3353Y45698D01*
X4050Y46606D01*
X4488Y47664D01*
X4558Y48193D01*
X5442D01*
X5512Y47664D01*
X5950Y46606D01*
X6647Y45698D01*
X7556Y45000D01*
X8614Y44562D01*
X9750Y44412D01*
X10250D01*
X11386Y44562D01*
X12444Y45000D01*
X13352Y45698D01*
X14050Y46606D01*
X14488Y47664D01*
X14546Y48106D01*
X15050D01*
X15122Y47560D01*
X15601Y46404D01*
X16362Y45412D01*
X17355Y44651D01*
X18510Y44172D01*
X19750Y44009D01*
X20250D01*
X21490Y44172D01*
X22646Y44651D01*
X23638Y45412D01*
X24399Y46404D01*
X24878Y47560D01*
X24961Y48193D01*
X39370D01*
X39411Y48201D01*
X41094Y48035D01*
D02*
G37*
%LPC*%
G36*
X7500Y41569D02*
X6778Y41474D01*
X6105Y41195D01*
X5528Y40752D01*
X5314Y40473D01*
X4686D01*
X4472Y40752D01*
X3895Y41195D01*
X3222Y41474D01*
X2500Y41569D01*
X1778Y41474D01*
X1105Y41195D01*
X528Y40752D01*
X314Y40473D01*
X-314D01*
X-528Y40752D01*
X-1105Y41195D01*
X-1778Y41474D01*
X-2500Y41569D01*
X-3222Y41474D01*
X-3895Y41195D01*
X-4472Y40752D01*
X-4686Y40473D01*
X-5314D01*
X-5528Y40752D01*
X-6105Y41195D01*
X-6778Y41474D01*
X-7500Y41569D01*
X-8222Y41474D01*
X-8895Y41195D01*
X-9472Y40752D01*
X-9916Y40174D01*
X-10194Y39501D01*
X-10289Y38780D01*
Y37598D01*
X-10194Y36876D01*
X-9916Y36204D01*
X-9472Y35626D01*
X-8895Y35183D01*
X-8222Y34904D01*
X-7500Y34809D01*
X-6778Y34904D01*
X-6105Y35183D01*
X-5528Y35626D01*
X-5314Y35905D01*
X-4686D01*
X-4472Y35626D01*
X-3895Y35183D01*
X-3222Y34904D01*
X-2500Y34809D01*
X-1778Y34904D01*
X-1105Y35183D01*
X-528Y35626D01*
X-314Y35905D01*
X314D01*
X528Y35626D01*
X1105Y35183D01*
X1778Y34904D01*
X2500Y34809D01*
X3222Y34904D01*
X3895Y35183D01*
X4472Y35626D01*
X4686Y35905D01*
X5314D01*
X5528Y35626D01*
X6105Y35183D01*
X6778Y34904D01*
X7500Y34809D01*
X8222Y34904D01*
X8895Y35183D01*
X9472Y35626D01*
X9916Y36204D01*
X10194Y36876D01*
X10289Y37598D01*
Y38780D01*
X10194Y39501D01*
X9916Y40174D01*
X9472Y40752D01*
X8895Y41195D01*
X8222Y41474D01*
X7500Y41569D01*
D02*
G37*
G36*
X-23556Y40987D02*
X-24024Y40894D01*
X-24421Y40629D01*
X-24686Y40232D01*
X-24779Y39764D01*
X-24686Y39296D01*
X-24421Y38899D01*
X-24024Y38633D01*
X-23556Y38540D01*
X-23087Y38633D01*
X-22691Y38899D01*
X-22425Y39296D01*
X-22332Y39764D01*
X-22425Y40232D01*
X-22691Y40629D01*
X-23087Y40894D01*
X-23556Y40987D01*
D02*
G37*
G36*
X-14961Y38625D02*
X-15429Y38532D01*
X-15826Y38267D01*
X-16091Y37870D01*
X-16184Y37402D01*
X-16091Y36933D01*
X-15826Y36536D01*
X-15429Y36271D01*
X-14961Y36178D01*
X-14492Y36271D01*
X-14096Y36536D01*
X-13830Y36933D01*
X-13737Y37402D01*
X-13830Y37870D01*
X-14096Y38267D01*
X-14492Y38532D01*
X-14961Y38625D01*
D02*
G37*
G36*
X-34843Y38931D02*
X-35428Y38814D01*
X-35924Y38483D01*
X-36255Y37987D01*
X-36372Y37402D01*
X-36255Y36816D01*
X-35924Y36320D01*
X-35428Y35989D01*
X-34843Y35872D01*
X-34257Y35989D01*
X-33761Y36320D01*
X-33430Y36816D01*
X-33313Y37402D01*
X-33430Y37987D01*
X-33761Y38483D01*
X-34257Y38814D01*
X-34843Y38931D01*
D02*
G37*
G36*
X39370Y45907D02*
X38095Y45781D01*
X36869Y45410D01*
X35738Y44805D01*
X34748Y43992D01*
X33935Y43002D01*
X33331Y41872D01*
X32959Y40645D01*
X32833Y39370D01*
X32959Y38095D01*
X33331Y36869D01*
X33935Y35738D01*
X34748Y34748D01*
X35738Y33935D01*
X36869Y33331D01*
X38095Y32959D01*
X39370Y32833D01*
X40645Y32959D01*
X41872Y33331D01*
X43002Y33935D01*
X43992Y34748D01*
X44805Y35738D01*
X45410Y36869D01*
X45781Y38095D01*
X45907Y39370D01*
X45781Y40645D01*
X45410Y41872D01*
X44805Y43002D01*
X43992Y43992D01*
X43002Y44805D01*
X41872Y45410D01*
X40645Y45781D01*
X39370Y45907D01*
D02*
G37*
G36*
X8024Y32098D02*
X7724D01*
X6549Y31943D01*
X5455Y31490D01*
X4515Y30768D01*
X3822Y29866D01*
X3647Y29843D01*
X3274Y29882D01*
X3101Y30299D01*
X2532Y31041D01*
X1790Y31610D01*
X927Y31968D01*
X0Y32090D01*
X-927Y31968D01*
X-1790Y31610D01*
X-2532Y31041D01*
X-3101Y30299D01*
X-3274Y29882D01*
X-3647Y29843D01*
X-3822Y29866D01*
X-4515Y30768D01*
X-5455Y31490D01*
X-6549Y31943D01*
X-7724Y32098D01*
X-8024D01*
X-9199Y31943D01*
X-10293Y31490D01*
X-11233Y30768D01*
X-11926Y29866D01*
X-12101Y29844D01*
X-12474Y29882D01*
X-12647Y30299D01*
X-13216Y31041D01*
X-13958Y31610D01*
X-14821Y31968D01*
X-15748Y32090D01*
X-16675Y31968D01*
X-17538Y31610D01*
X-18280Y31041D01*
X-18849Y30299D01*
X-19207Y29436D01*
X-19329Y28509D01*
Y26609D01*
X-19207Y25682D01*
X-18849Y24819D01*
X-18280Y24077D01*
X-17538Y23508D01*
X-16675Y23150D01*
X-15748Y23028D01*
X-14821Y23150D01*
X-13958Y23508D01*
X-13216Y24077D01*
X-12647Y24819D01*
X-12474Y25237D01*
X-12101Y25275D01*
X-11926Y25253D01*
X-11233Y24350D01*
X-10293Y23628D01*
X-9199Y23175D01*
X-8024Y23020D01*
X-7724D01*
X-6549Y23175D01*
X-5455Y23628D01*
X-4515Y24350D01*
X-3822Y25253D01*
X-3647Y25275D01*
X-3274Y25237D01*
X-3101Y24819D01*
X-2532Y24077D01*
X-1790Y23508D01*
X-927Y23150D01*
X0Y23028D01*
X927Y23150D01*
X1790Y23508D01*
X2532Y24077D01*
X3101Y24819D01*
X3274Y25237D01*
X3647Y25275D01*
X3822Y25253D01*
X4515Y24350D01*
X5455Y23628D01*
X6549Y23175D01*
X7724Y23020D01*
X8024D01*
X9199Y23175D01*
X10293Y23628D01*
X11233Y24350D01*
X11926Y25253D01*
X12101Y25275D01*
X12474Y25237D01*
X12647Y24819D01*
X13216Y24077D01*
X13958Y23508D01*
X14821Y23150D01*
X15748Y23028D01*
X16675Y23150D01*
X17538Y23508D01*
X18280Y24077D01*
X18849Y24819D01*
X19207Y25682D01*
X19329Y26609D01*
Y28509D01*
X19207Y29436D01*
X18849Y30299D01*
X18280Y31041D01*
X17538Y31610D01*
X16675Y31968D01*
X15748Y32090D01*
X14821Y31968D01*
X13958Y31610D01*
X13216Y31041D01*
X12647Y30299D01*
X12474Y29882D01*
X12101Y29844D01*
X11926Y29866D01*
X11233Y30768D01*
X10293Y31490D01*
X9199Y31943D01*
X8024Y32098D01*
D02*
G37*
G36*
X-41142Y23987D02*
X-42595D01*
Y21500D01*
X-37485D01*
X-37689Y21993D01*
X-38323Y22819D01*
X-39148Y23453D01*
X-40110Y23851D01*
X-41142Y23987D01*
D02*
G37*
G36*
X42595D02*
X41142D01*
X40110Y23851D01*
X39148Y23453D01*
X38323Y22819D01*
X37689Y21993D01*
X37485Y21500D01*
X42595D01*
Y23987D01*
D02*
G37*
G36*
X-21260Y22243D02*
X-21787Y22138D01*
X-22233Y21839D01*
X-22532Y21393D01*
X-22636Y20866D01*
X-22532Y20339D01*
X-22233Y19893D01*
X-21787Y19594D01*
X-21260Y19490D01*
X-20733Y19594D01*
X-20287Y19893D01*
X-19988Y20339D01*
X-19883Y20866D01*
X-19988Y21393D01*
X-20287Y21839D01*
X-20733Y22138D01*
X-21260Y22243D01*
D02*
G37*
G36*
X42595Y18500D02*
X37485D01*
X37689Y18007D01*
X38323Y17181D01*
X39148Y16547D01*
X40110Y16149D01*
X41142Y16013D01*
X42595D01*
Y18500D01*
D02*
G37*
G36*
X-37485D02*
X-42595D01*
Y16013D01*
X-41142D01*
X-40110Y16149D01*
X-39148Y16547D01*
X-38323Y17181D01*
X-37689Y18007D01*
X-37485Y18500D01*
D02*
G37*
G36*
X-4724Y16972D02*
X-5193Y16878D01*
X-5590Y16613D01*
X-5855Y16216D01*
X-5948Y15748D01*
X-5855Y15280D01*
X-5590Y14883D01*
X-5193Y14618D01*
X-4724Y14525D01*
X-4256Y14618D01*
X-3859Y14883D01*
X-3594Y15280D01*
X-3501Y15748D01*
X-3594Y16216D01*
X-3859Y16613D01*
X-4256Y16878D01*
X-4724Y16972D01*
D02*
G37*
G36*
X-32762Y13834D02*
X-33230Y13741D01*
X-33627Y13476D01*
X-33892Y13079D01*
X-33985Y12611D01*
X-33892Y12143D01*
X-33627Y11746D01*
X-33230Y11480D01*
X-32762Y11387D01*
X-32293Y11480D01*
X-31896Y11746D01*
X-31631Y12143D01*
X-31538Y12611D01*
X-31631Y13079D01*
X-31896Y13476D01*
X-32293Y13741D01*
X-32762Y13834D01*
D02*
G37*
G36*
X-4331Y13035D02*
X-4799Y12941D01*
X-5196Y12676D01*
X-5461Y12279D01*
X-5554Y11811D01*
X-5461Y11343D01*
X-5196Y10946D01*
X-4799Y10681D01*
X-4331Y10588D01*
X-3862Y10681D01*
X-3466Y10946D01*
X-3200Y11343D01*
X-3107Y11811D01*
X-3200Y12279D01*
X-3466Y12676D01*
X-3862Y12941D01*
X-4331Y13035D01*
D02*
G37*
G36*
X3937Y12641D02*
X3469Y12548D01*
X3072Y12282D01*
X2807Y11885D01*
X2713Y11417D01*
X2807Y10949D01*
X3072Y10552D01*
X3469Y10287D01*
X3937Y10194D01*
X4405Y10287D01*
X4802Y10552D01*
X5067Y10949D01*
X5161Y11417D01*
X5067Y11885D01*
X4802Y12282D01*
X4405Y12548D01*
X3937Y12641D01*
D02*
G37*
G36*
X23228Y8510D02*
X21760Y8366D01*
X20348Y7937D01*
X19047Y7242D01*
X17907Y6306D01*
X16971Y5165D01*
X16275Y3864D01*
X15847Y2452D01*
X15702Y984D01*
Y-984D01*
X15847Y-2452D01*
X16275Y-3864D01*
X16971Y-5165D01*
X17907Y-6306D01*
X19047Y-7242D01*
X20348Y-7937D01*
X21760Y-8366D01*
X23228Y-8510D01*
X24697Y-8366D01*
X26108Y-7937D01*
X27410Y-7242D01*
X28550Y-6306D01*
X29486Y-5165D01*
X30182Y-3864D01*
X30610Y-2452D01*
X30754Y-984D01*
Y984D01*
X30610Y2452D01*
X30182Y3864D01*
X29486Y5165D01*
X28550Y6306D01*
X27410Y7242D01*
X26108Y7937D01*
X24697Y8366D01*
X23228Y8510D01*
D02*
G37*
G36*
X-23228D02*
X-24697Y8366D01*
X-26108Y7937D01*
X-27410Y7242D01*
X-28550Y6306D01*
X-29486Y5165D01*
X-30182Y3864D01*
X-30610Y2452D01*
X-30754Y984D01*
Y-984D01*
X-30610Y-2452D01*
X-30182Y-3864D01*
X-29486Y-5165D01*
X-28550Y-6306D01*
X-27410Y-7242D01*
X-26108Y-7937D01*
X-24697Y-8366D01*
X-23228Y-8510D01*
X-21760Y-8366D01*
X-20348Y-7937D01*
X-19047Y-7242D01*
X-17907Y-6306D01*
X-16971Y-5165D01*
X-16275Y-3864D01*
X-15847Y-2452D01*
X-15702Y-984D01*
Y984D01*
X-15847Y2452D01*
X-16275Y3864D01*
X-16971Y5165D01*
X-17907Y6306D01*
X-19047Y7242D01*
X-20348Y7937D01*
X-21760Y8366D01*
X-23228Y8510D01*
D02*
G37*
G36*
X-1206Y-9406D02*
X-1674Y-9499D01*
X-2072Y-9765D01*
X-2337Y-10162D01*
X-2430Y-10630D01*
X-2337Y-11098D01*
X-2072Y-11495D01*
X-1674Y-11760D01*
X-1206Y-11853D01*
X-738Y-11760D01*
X-341Y-11495D01*
X-76Y-11098D01*
X17Y-10630D01*
X-76Y-10162D01*
X-341Y-9765D01*
X-738Y-9499D01*
X-1206Y-9406D01*
D02*
G37*
G36*
X-12800Y-12162D02*
X-13268Y-12256D01*
X-13665Y-12521D01*
X-13930Y-12918D01*
X-14023Y-13386D01*
X-13930Y-13854D01*
X-13665Y-14251D01*
X-13268Y-14516D01*
X-12800Y-14609D01*
X-12331Y-14516D01*
X-11935Y-14251D01*
X-11669Y-13854D01*
X-11576Y-13386D01*
X-11669Y-12918D01*
X-11935Y-12521D01*
X-12331Y-12256D01*
X-12800Y-12162D01*
D02*
G37*
G36*
X0Y-16187D02*
X-585Y-16304D01*
X-1081Y-16635D01*
X-1413Y-17131D01*
X-1529Y-17717D01*
X-1413Y-18302D01*
X-1081Y-18798D01*
X-585Y-19129D01*
X0Y-19246D01*
X585Y-19129D01*
X1081Y-18798D01*
X1413Y-18302D01*
X1529Y-17717D01*
X1413Y-17131D01*
X1081Y-16635D01*
X585Y-16304D01*
X0Y-16187D01*
D02*
G37*
G36*
X29528Y-18068D02*
X29059Y-18161D01*
X28662Y-18426D01*
X28397Y-18823D01*
X28304Y-19291D01*
X28397Y-19760D01*
X28662Y-20156D01*
X29059Y-20422D01*
X29528Y-20515D01*
X29996Y-20422D01*
X30393Y-20156D01*
X30658Y-19760D01*
X30751Y-19291D01*
X30658Y-18823D01*
X30393Y-18426D01*
X29996Y-18161D01*
X29528Y-18068D01*
D02*
G37*
G36*
X-31496Y-18777D02*
X-31964Y-18870D01*
X-32361Y-19135D01*
X-32626Y-19532D01*
X-32720Y-20000D01*
X-32626Y-20468D01*
X-32361Y-20865D01*
X-31964Y-21130D01*
X-31496Y-21224D01*
X-31028Y-21130D01*
X-30631Y-20865D01*
X-30366Y-20468D01*
X-30273Y-20000D01*
X-30366Y-19532D01*
X-30631Y-19135D01*
X-31028Y-18870D01*
X-31496Y-18777D01*
D02*
G37*
G36*
X1500Y-24923D02*
Y-28028D01*
X3912D01*
X3848Y-27546D01*
X3450Y-26586D01*
X2817Y-25760D01*
X1992Y-25127D01*
X1500Y-24923D01*
D02*
G37*
G36*
X-1500D02*
X-1992Y-25127D01*
X-2817Y-25760D01*
X-3450Y-26586D01*
X-3848Y-27546D01*
X-3912Y-28028D01*
X-1500D01*
Y-24923D01*
D02*
G37*
G36*
X16535Y-28698D02*
X16067Y-28791D01*
X15670Y-29056D01*
X15405Y-29453D01*
X15312Y-29921D01*
X15405Y-30389D01*
X15670Y-30786D01*
X16067Y-31052D01*
X16535Y-31145D01*
X17004Y-31052D01*
X17401Y-30786D01*
X17666Y-30389D01*
X17759Y-29921D01*
X17666Y-29453D01*
X17401Y-29056D01*
X17004Y-28791D01*
X16535Y-28698D01*
D02*
G37*
G36*
X19540Y-30666D02*
X19072Y-30759D01*
X18675Y-31025D01*
X18410Y-31422D01*
X18317Y-31890D01*
X18410Y-32358D01*
X18675Y-32755D01*
X19072Y-33020D01*
X19540Y-33113D01*
X20009Y-33020D01*
X20405Y-32755D01*
X20671Y-32358D01*
X20764Y-31890D01*
X20671Y-31422D01*
X20405Y-31025D01*
X20009Y-30759D01*
X19540Y-30666D01*
D02*
G37*
G36*
X9843Y-24997D02*
X8916Y-25119D01*
X8052Y-25477D01*
X7311Y-26046D01*
X6742Y-26787D01*
X6384Y-27651D01*
X6262Y-28578D01*
Y-30478D01*
X6384Y-31404D01*
X6742Y-32268D01*
X7311Y-33009D01*
X8052Y-33579D01*
X8916Y-33936D01*
X9843Y-34058D01*
X10769Y-33936D01*
X11633Y-33579D01*
X12374Y-33009D01*
X12943Y-32268D01*
X13301Y-31404D01*
X13423Y-30478D01*
Y-28578D01*
X13301Y-27651D01*
X12943Y-26787D01*
X12374Y-26046D01*
X11633Y-25477D01*
X10769Y-25119D01*
X9843Y-24997D01*
D02*
G37*
G36*
X-9843D02*
X-10769Y-25119D01*
X-11633Y-25477D01*
X-12374Y-26046D01*
X-12943Y-26787D01*
X-13301Y-27651D01*
X-13423Y-28578D01*
Y-30478D01*
X-13301Y-31404D01*
X-12943Y-32268D01*
X-12374Y-33009D01*
X-11633Y-33579D01*
X-10769Y-33936D01*
X-9843Y-34058D01*
X-8916Y-33936D01*
X-8052Y-33579D01*
X-7311Y-33009D01*
X-6742Y-32268D01*
X-6384Y-31404D01*
X-6262Y-30478D01*
Y-28578D01*
X-6384Y-27651D01*
X-6742Y-26787D01*
X-7311Y-26046D01*
X-8052Y-25477D01*
X-8916Y-25119D01*
X-9843Y-24997D01*
D02*
G37*
G36*
X3912Y-31028D02*
X1500D01*
Y-34132D01*
X1992Y-33928D01*
X2817Y-33295D01*
X3450Y-32470D01*
X3848Y-31509D01*
X3912Y-31028D01*
D02*
G37*
G36*
X-1500D02*
X-3912D01*
X-3848Y-31509D01*
X-3450Y-32470D01*
X-2817Y-33295D01*
X-1992Y-33928D01*
X-1500Y-34132D01*
Y-31028D01*
D02*
G37*
G36*
X4331Y-33028D02*
X3862Y-33121D01*
X3466Y-33387D01*
X3200Y-33784D01*
X3107Y-34252D01*
X3200Y-34720D01*
X3466Y-35117D01*
X3862Y-35382D01*
X4331Y-35475D01*
X4799Y-35382D01*
X5196Y-35117D01*
X5461Y-34720D01*
X5554Y-34252D01*
X5461Y-33784D01*
X5196Y-33387D01*
X4799Y-33121D01*
X4331Y-33028D01*
D02*
G37*
G36*
X-39370Y-32833D02*
X-40645Y-32959D01*
X-41872Y-33331D01*
X-43002Y-33935D01*
X-43992Y-34748D01*
X-44805Y-35738D01*
X-45410Y-36869D01*
X-45781Y-38095D01*
X-45907Y-39370D01*
X-45781Y-40645D01*
X-45410Y-41872D01*
X-44805Y-43002D01*
X-43992Y-43992D01*
X-43002Y-44805D01*
X-41872Y-45410D01*
X-40645Y-45781D01*
X-39370Y-45907D01*
X-38095Y-45781D01*
X-36869Y-45410D01*
X-35738Y-44805D01*
X-34748Y-43992D01*
X-33935Y-43002D01*
X-33331Y-41872D01*
X-32959Y-40645D01*
X-32833Y-39370D01*
X-32959Y-38095D01*
X-33331Y-36869D01*
X-33935Y-35738D01*
X-34748Y-34748D01*
X-35738Y-33935D01*
X-36869Y-33331D01*
X-38095Y-32959D01*
X-39370Y-32833D01*
D02*
G37*
%LPD*%
D26*
X20000Y48800D02*
X24797Y44003D01*
X14507Y43307D02*
X20000Y48800D01*
Y-48800D02*
X25493Y-43307D01*
X14507D02*
X20000Y-48800D01*
D27*
X44094Y20000D02*
D03*
Y10000D02*
D03*
Y0D02*
D03*
Y-10000D02*
D03*
Y-20000D02*
D03*
X-44094D02*
D03*
Y-10000D02*
D03*
Y0D02*
D03*
Y10000D02*
D03*
Y20000D02*
D03*
D29*
X0Y-29528D02*
D03*
D32*
X20000Y-48800D02*
D03*
Y48800D02*
D03*
D33*
X-48800Y-20000D02*
D03*
Y-10000D02*
D03*
Y0D02*
D03*
Y10000D02*
D03*
Y20000D02*
D03*
X48800D02*
D03*
Y10000D02*
D03*
Y0D02*
D03*
Y-10000D02*
D03*
Y-20000D02*
D03*
D34*
X-2088Y2088D02*
D03*
Y-2088D02*
D03*
X2088D02*
D03*
Y2088D02*
D03*
X-14930Y-44094D02*
D03*
X-14805Y44738D02*
D03*
X14919Y-26779D02*
D03*
X27559Y-46505D02*
D03*
X33465Y-45276D02*
D03*
X45276Y-27559D02*
D03*
X-29528Y-37402D02*
D03*
X-37402Y-29528D02*
D03*
X-5512Y-24409D02*
D03*
X12598Y-24016D02*
D03*
X33465Y-1969D02*
D03*
Y3937D02*
D03*
Y9843D02*
D03*
Y15354D02*
D03*
Y21654D02*
D03*
X37402Y27559D02*
D03*
X31496Y31496D02*
D03*
X27559Y39370D02*
D03*
X-33465Y45276D02*
D03*
X-41339D02*
D03*
X-43307Y27559D02*
D03*
X-33465Y25591D02*
D03*
X-16295Y7409D02*
D03*
X-19106Y9317D02*
D03*
X-25591Y10630D02*
D03*
X-25748Y17181D02*
D03*
X-45276Y-29528D02*
D03*
X-27559Y-43307D02*
D03*
X-19750Y-24540D02*
D03*
X-29921Y-10000D02*
D03*
X-13077Y3150D02*
D03*
X0Y11811D02*
D03*
X2066Y-11392D02*
D03*
X0Y-22835D02*
D03*
X26772Y-15354D02*
D03*
X-15268Y-29134D02*
D03*
X-15317Y-24540D02*
D03*
M02*
