M48
;Layer_Color=9474304
;FILE_FORMAT=2:5
INCH,LZ
;TYPE=PLATED
T1F00S00C0.01200
T2F00S00C0.01500
T3F00S00C0.01800
T4F00S00C0.03543
T5F00S00C0.03937
T6F00S00C0.04331
T7F00S00C0.04400
T9F00S00C0.04800
;TYPE=NON_PLATED
T11F00S00C0.11811
%
T01
X-0045276Y-0029528
X-0037402
X-0031496Y-002
X-0029921Y-001
X-00128Y-0013386
X-0015317Y-002454
X-001975
X-0015268Y-0029134
X-0005512Y-0024409
X0Y-0022835
X-0001206Y-001063
X0002066Y-0011392
X0002088Y-0002088
X-0002088
Y0002088
X0002088
X0003937Y0011417
X0Y0011811
X-0004331
X-0004724Y0015748
X-0016295Y0007409
X-0019106Y0009317
X-0025591Y001063
X-0025748Y0017181
X-0032762Y0012611
X-0033465Y0025591
X-0043307Y0027559
X-0013077Y000315
X0033465Y0003937
Y-0001969
Y0009843
Y0015354
Y0021654
X0037402Y0027559
X0026772Y-0015354
X0029528Y-0019291
X0012598Y-0024016
X0014919Y-0026779
X0016535Y-0029921
X001954Y-003189
X0004331Y-0034252
X-0006578Y-0043841
X-001493Y-0044094
X-0027559Y-0043307
X-0029528Y-0037402
X0027559Y-0046505
X0033465Y-0045276
X0045276Y-0027559
X0031496Y0031496
X0027559Y003937
X-0014961Y0037402
X-0014805Y0044738
X-0023556Y0039764
X-0033465Y0045276
X-0041339
T02
X-002126Y0020866
T03
X0Y-0017717
X-0034843Y0037402
T04
X-00075Y0038189
X-00025
X00025
X00075
T05
X-0041339Y-002
Y-001
Y0
Y001
Y002
X0041339
Y001
Y0
Y-001
Y-002
T06
X-0009843Y-0029528
X0
X0009843
T07
X-0015748Y0027559
X0
X0015748
T09
X-002Y-00488
X-001
X0
X001
X002
X00488Y-002
Y-001
Y0
Y001
Y002
X-00488
Y001
Y0
Y-001
Y-002
X-002Y00488
X-001
X0
X001
X002
T11
X-003937Y-003937
X003937Y003937
M30
